<?xml version="1.0" encoding="utf-8" standalone="no"?>
<!DOCTYPE svg PUBLIC "-//W3C//DTD SVG 1.1//EN"
  "http://www.w3.org/Graphics/SVG/1.1/DTD/svg11.dtd">
<svg xmlns:xlink="http://www.w3.org/1999/xlink" width="519.3216pt" height="239.2848pt" viewBox="0 0 519.3216 239.2848" xmlns="http://www.w3.org/2000/svg" version="1.1">
 <metadata>
  <rdf:RDF xmlns:dc="http://purl.org/dc/elements/1.1/" xmlns:cc="http://creativecommons.org/ns#" xmlns:rdf="http://www.w3.org/1999/02/22-rdf-syntax-ns#">
   <cc:Work>
    <dc:type rdf:resource="http://purl.org/dc/dcmitype/StillImage"/>
    <dc:date>2026-07-10T21:10:52.718721</dc:date>
    <dc:format>image/svg+xml</dc:format>
    <dc:creator>
     <cc:Agent>
      <dc:title>Matplotlib v3.11.0, https://matplotlib.org/</dc:title>
     </cc:Agent>
    </dc:creator>
   </cc:Work>
  </rdf:RDF>
 </metadata>
 <defs>
  <style type="text/css">*{stroke-linejoin: round; stroke-linecap: butt}</style>
 </defs>
 <g id="figure_1">
  <g id="patch_1">
   <path d="M 0 239.2848
L 519.3216 239.2848
L 519.3216 0
L 0 0
z
" style="fill: #ffffff"/>
  </g>
  <g id="axes_1">
   <g id="patch_2">
    <path d="M 21.716496 104.589627
L 94.50936 104.589627
Q 97.875504 104.589627 97.875504 101.687888
L 97.875504 48.731145
Q 97.875504 45.829405 94.50936 45.829405
L 21.716496 45.829405
Q 18.350352 45.829405 18.350352 48.731145
L 18.350352 101.687888
Q 18.350352 104.589627 21.716496 104.589627
z
" clip-path="url(#p5d56349b43)" style="fill: #e8eef3; stroke: #4c78a8; stroke-linejoin: miter"/>
   </g>
   <g id="patch_3">
    <path d="M 123.542352 104.589627
L 196.335216 104.589627
Q 199.70136 104.589627 199.70136 101.687888
L 199.70136 48.731145
Q 199.70136 45.829405 196.335216 45.829405
L 123.542352 45.829405
Q 120.176208 45.829405 120.176208 48.731145
L 120.176208 101.687888
Q 120.176208 104.589627 123.542352 104.589627
z
" clip-path="url(#p5d56349b43)" style="fill: #e8eef3; stroke: #4c78a8; stroke-linejoin: miter"/>
   </g>
   <g id="patch_4">
    <path d="M 225.368208 104.589627
L 298.161072 104.589627
Q 301.527216 104.589627 301.527216 101.687888
L 301.527216 48.731145
Q 301.527216 45.829405 298.161072 45.829405
L 225.368208 45.829405
Q 222.002064 45.829405 222.002064 48.731145
L 222.002064 101.687888
Q 222.002064 104.589627 225.368208 104.589627
z
" clip-path="url(#p5d56349b43)" style="fill: #e1f0e2; stroke: #2e7d32; stroke-linejoin: miter"/>
   </g>
   <g id="patch_5">
    <path d="M 327.194064 104.589627
L 399.986928 104.589627
Q 403.353072 104.589627 403.353072 101.687888
L 403.353072 48.731145
Q 403.353072 45.829405 399.986928 45.829405
L 327.194064 45.829405
Q 323.82792 45.829405 323.82792 48.731145
L 323.82792 101.687888
Q 323.82792 104.589627 327.194064 104.589627
z
" clip-path="url(#p5d56349b43)" style="fill: #e1f0e2; stroke: #2e7d32; stroke-linejoin: miter"/>
   </g>
   <g id="patch_6">
    <path d="M 429.01992 104.589627
L 501.812784 104.589627
Q 505.178928 104.589627 505.178928 101.687888
L 505.178928 48.731145
Q 505.178928 45.829405 501.812784 45.829405
L 429.01992 45.829405
Q 425.653776 45.829405 425.653776 48.731145
L 425.653776 101.687888
Q 425.653776 104.589627 429.01992 104.589627
z
" clip-path="url(#p5d56349b43)" style="fill: #e1f0e2; stroke: #2e7d32; stroke-linejoin: miter"/>
   </g>
   <g id="patch_7">
    <path d="M 24.03072 51.814243
C 25.704555 51.814243 27.310059 51.24097 28.493639 50.22068
C 29.677218 49.200391 30.34224 47.816388 30.34224 46.373481
C 30.34224 44.930575 29.677218 43.546571 28.493639 42.526282
C 27.310059 41.505993 25.704555 40.93272 24.03072 40.93272
C 22.356885 40.93272 20.751381 41.505993 19.567801 42.526282
C 18.384222 43.546571 17.7192 44.930575 17.7192 46.373481
C 17.7192 47.816388 18.384222 49.200391 19.567801 50.22068
C 20.751381 51.24097 22.356885 51.814243 24.03072 51.814243
z
" style="fill: #4c78a8; stroke: #ffffff; stroke-width: 0.7; stroke-linejoin: miter"/>
   </g>
   <g id="patch_8">
    <path d="M 125.856576 51.814243
C 127.530411 51.814243 129.135915 51.24097 130.319495 50.22068
C 131.503074 49.200391 132.168096 47.816388 132.168096 46.373481
C 132.168096 44.930575 131.503074 43.546571 130.319495 42.526282
C 129.135915 41.505993 127.530411 40.93272 125.856576 40.93272
C 124.182741 40.93272 122.577237 41.505993 121.393657 42.526282
C 120.210078 43.546571 119.545056 44.930575 119.545056 46.373481
C 119.545056 47.816388 120.210078 49.200391 121.393657 50.22068
C 122.577237 51.24097 124.182741 51.814243 125.856576 51.814243
z
" style="fill: #4c78a8; stroke: #ffffff; stroke-width: 0.7; stroke-linejoin: miter"/>
   </g>
   <g id="patch_9">
    <path d="M 227.682432 51.814243
C 229.356267 51.814243 230.961771 51.24097 232.145351 50.22068
C 233.32893 49.200391 233.993952 47.816388 233.993952 46.373481
C 233.993952 44.930575 233.32893 43.546571 232.145351 42.526282
C 230.961771 41.505993 229.356267 40.93272 227.682432 40.93272
C 226.008597 40.93272 224.403093 41.505993 223.219513 42.526282
C 222.035934 43.546571 221.370912 44.930575 221.370912 46.373481
C 221.370912 47.816388 222.035934 49.200391 223.219513 50.22068
C 224.403093 51.24097 226.008597 51.814243 227.682432 51.814243
z
" style="fill: #2e7d32; stroke: #ffffff; stroke-width: 0.7; stroke-linejoin: miter"/>
   </g>
   <g id="patch_10">
    <path d="M 329.508288 51.814243
C 331.182123 51.814243 332.787627 51.24097 333.971207 50.22068
C 335.154786 49.200391 335.819808 47.816388 335.819808 46.373481
C 335.819808 44.930575 335.154786 43.546571 333.971207 42.526282
C 332.787627 41.505993 331.182123 40.93272 329.508288 40.93272
C 327.834453 40.93272 326.228949 41.505993 325.045369 42.526282
C 323.86179 43.546571 323.196768 44.930575 323.196768 46.373481
C 323.196768 47.816388 323.86179 49.200391 325.045369 50.22068
C 326.228949 51.24097 327.834453 51.814243 329.508288 51.814243
z
" style="fill: #2e7d32; stroke: #ffffff; stroke-width: 0.7; stroke-linejoin: miter"/>
   </g>
   <g id="patch_11">
    <path d="M 431.334144 51.814243
C 433.007979 51.814243 434.613483 51.24097 435.797063 50.22068
C 436.980642 49.200391 437.645664 47.816388 437.645664 46.373481
C 437.645664 44.930575 436.980642 43.546571 435.797063 42.526282
C 434.613483 41.505993 433.007979 40.93272 431.334144 40.93272
C 429.660309 40.93272 428.054805 41.505993 426.871225 42.526282
C 425.687646 43.546571 425.022624 44.930575 425.022624 46.373481
C 425.022624 47.816388 425.687646 49.200391 426.871225 50.22068
C 428.054805 51.24097 429.660309 51.814243 431.334144 51.814243
z
" style="fill: #2e7d32; stroke: #ffffff; stroke-width: 0.7; stroke-linejoin: miter"/>
   </g>
   <g id="patch_12">
    <path d="M 335.735654 80.541462
L 338.462749 80.541462
Q 338.883517 80.541462 338.883517 80.178745
L 338.883517 74.230179
Q 338.883517 73.867462 338.462749 73.867462
L 335.735654 73.867462
Q 335.314886 73.867462 335.314886 74.230179
L 335.314886 80.178745
Q 335.314886 80.541462 335.735654 80.541462
z
" clip-path="url(#p5d56349b43)" style="fill: #2e7d32; opacity: 0.22"/>
   </g>
   <g id="patch_13">
    <path d="M 340.15087 80.541462
L 342.877965 80.541462
Q 343.298733 80.541462 343.298733 80.178745
L 343.298733 74.230179
Q 343.298733 73.867462 342.877965 73.867462
L 340.15087 73.867462
Q 339.730102 73.867462 339.730102 74.230179
L 339.730102 80.178745
Q 339.730102 80.541462 340.15087 80.541462
z
" clip-path="url(#p5d56349b43)" style="fill: #2e7d32; opacity: 0.268333"/>
   </g>
   <g id="patch_14">
    <path d="M 344.566086 80.541462
L 347.29318 80.541462
Q 347.713948 80.541462 347.713948 80.178745
L 347.713948 74.230179
Q 347.713948 73.867462 347.29318 73.867462
L 344.566086 73.867462
Q 344.145318 73.867462 344.145318 74.230179
L 344.145318 80.178745
Q 344.145318 80.541462 344.566086 80.541462
z
" clip-path="url(#p5d56349b43)" style="fill: #2e7d32; opacity: 0.316667"/>
   </g>
   <g id="patch_15">
    <path d="M 348.981302 80.541462
L 351.708396 80.541462
Q 352.129164 80.541462 352.129164 80.178745
L 352.129164 74.230179
Q 352.129164 73.867462 351.708396 73.867462
L 348.981302 73.867462
Q 348.560534 73.867462 348.560534 74.230179
L 348.560534 80.178745
Q 348.560534 80.541462 348.981302 80.541462
z
" clip-path="url(#p5d56349b43)" style="fill: #2e7d32; opacity: 0.365"/>
   </g>
   <g id="patch_16">
    <path d="M 353.396517 80.541462
L 356.123612 80.541462
Q 356.54438 80.541462 356.54438 80.178745
L 356.54438 74.230179
Q 356.54438 73.867462 356.123612 73.867462
L 353.396517 73.867462
Q 352.975749 73.867462 352.975749 74.230179
L 352.975749 80.178745
Q 352.975749 80.541462 353.396517 80.541462
z
" clip-path="url(#p5d56349b43)" style="fill: #2e7d32; opacity: 0.413333"/>
   </g>
   <g id="patch_17">
    <path d="M 357.811733 80.541462
L 360.538828 80.541462
Q 360.959596 80.541462 360.959596 80.178745
L 360.959596 74.230179
Q 360.959596 73.867462 360.538828 73.867462
L 357.811733 73.867462
Q 357.390965 73.867462 357.390965 74.230179
L 357.390965 80.178745
Q 357.390965 80.541462 357.811733 80.541462
z
" clip-path="url(#p5d56349b43)" style="fill: #2e7d32; opacity: 0.461667"/>
   </g>
   <g id="patch_18">
    <path d="M 362.226949 80.541462
L 364.954043 80.541462
Q 365.374811 80.541462 365.374811 80.178745
L 365.374811 74.230179
Q 365.374811 73.867462 364.954043 73.867462
L 362.226949 73.867462
Q 361.806181 73.867462 361.806181 74.230179
L 361.806181 80.178745
Q 361.806181 80.541462 362.226949 80.541462
z
" clip-path="url(#p5d56349b43)" style="fill: #2e7d32; opacity: 0.51"/>
   </g>
   <g id="patch_19">
    <path d="M 366.642164 80.541462
L 369.369259 80.541462
Q 369.790027 80.541462 369.790027 80.178745
L 369.790027 74.230179
Q 369.790027 73.867462 369.369259 73.867462
L 366.642164 73.867462
Q 366.221396 73.867462 366.221396 74.230179
L 366.221396 80.178745
Q 366.221396 80.541462 366.642164 80.541462
z
" clip-path="url(#p5d56349b43)" style="fill: #2e7d32; opacity: 0.558333"/>
   </g>
   <g id="patch_20">
    <path d="M 371.05738 80.541462
L 373.784475 80.541462
Q 374.205243 80.541462 374.205243 80.178745
L 374.205243 74.230179
Q 374.205243 73.867462 373.784475 73.867462
L 371.05738 73.867462
Q 370.636612 73.867462 370.636612 74.230179
L 370.636612 80.178745
Q 370.636612 80.541462 371.05738 80.541462
z
" clip-path="url(#p5d56349b43)" style="fill: #2e7d32; opacity: 0.606667"/>
   </g>
   <g id="patch_21">
    <path d="M 375.472596 80.541462
L 378.19969 80.541462
Q 378.620458 80.541462 378.620458 80.178745
L 378.620458 74.230179
Q 378.620458 73.867462 378.19969 73.867462
L 375.472596 73.867462
Q 375.051828 73.867462 375.051828 74.230179
L 375.051828 80.178745
Q 375.051828 80.541462 375.472596 80.541462
z
" clip-path="url(#p5d56349b43)" style="fill: #2e7d32; opacity: 0.655"/>
   </g>
   <g id="patch_22">
    <path d="M 379.887812 80.541462
L 382.614906 80.541462
Q 383.035674 80.541462 383.035674 80.178745
L 383.035674 74.230179
Q 383.035674 73.867462 382.614906 73.867462
L 379.887812 73.867462
Q 379.467044 73.867462 379.467044 74.230179
L 379.467044 80.178745
Q 379.467044 80.541462 379.887812 80.541462
z
" clip-path="url(#p5d56349b43)" style="fill: #2e7d32; opacity: 0.703333"/>
   </g>
   <g id="patch_23">
    <path d="M 384.303027 80.541462
L 387.030122 80.541462
Q 387.45089 80.541462 387.45089 80.178745
L 387.45089 74.230179
Q 387.45089 73.867462 387.030122 73.867462
L 384.303027 73.867462
Q 383.882259 73.867462 383.882259 74.230179
L 383.882259 80.178745
Q 383.882259 80.541462 384.303027 80.541462
z
" clip-path="url(#p5d56349b43)" style="fill: #2e7d32; opacity: 0.751667"/>
   </g>
   <g id="patch_24">
    <path d="M 388.718243 80.541462
L 391.445338 80.541462
Q 391.866106 80.541462 391.866106 80.178745
L 391.866106 74.230179
Q 391.866106 73.867462 391.445338 73.867462
L 388.718243 73.867462
Q 388.297475 73.867462 388.297475 74.230179
L 388.297475 80.178745
Q 388.297475 80.541462 388.718243 80.541462
z
" clip-path="url(#p5d56349b43)" style="fill: #2e7d32; opacity: 0.8"/>
   </g>
   <g id="patch_25">
    <path d="M 57.481776 207.238657
L 266.182704 207.238657
Q 269.548848 207.238657 269.548848 204.336917
L 269.548848 158.634523
Q 269.548848 155.732783 266.182704 155.732783
L 57.481776 155.732783
Q 54.115632 155.732783 54.115632 158.634523
L 54.115632 204.336917
Q 54.115632 207.238657 57.481776 207.238657
z
" clip-path="url(#p5d56349b43)" style="fill: #f9e9dd; stroke: #d55e00; stroke-width: 0.9; stroke-linejoin: miter"/>
   </g>
   <g id="patch_26">
    <path d="M 306.9972 207.238657
L 497.605104 207.238657
Q 500.971248 207.238657 500.971248 204.336917
L 500.971248 158.634523
Q 500.971248 155.732783 497.605104 155.732783
L 306.9972 155.732783
Q 303.631056 155.732783 303.631056 158.634523
L 303.631056 204.336917
Q 303.631056 207.238657 306.9972 207.238657
z
" clip-path="url(#p5d56349b43)" style="fill: #f9e9dd; stroke: #d55e00; stroke-width: 0.9; stroke-linejoin: miter"/>
   </g>
   <g id="patch_27">
    <path d="M 21.716496 155.007348
L 497.605104 155.007348
Q 500.971248 155.007348 500.971248 152.105609
L 500.971248 143.037674
Q 500.971248 140.135934 497.605104 140.135934
L 21.716496 140.135934
Q 18.350352 140.135934 18.350352 143.037674
L 18.350352 152.105609
Q 18.350352 155.007348 21.716496 155.007348
z
" clip-path="url(#p5d56349b43)" style="fill: #f8eeee; stroke: #a64b4b; stroke-width: 0.55; stroke-linejoin: miter"/>
   </g>
   <g id="line2d_1">
    <path d="M 96.823584 19.532392
L 499.49856 19.532392
" clip-path="url(#p5d56349b43)" style="fill: none; stroke: #2e7d32; stroke-opacity: 0.45; stroke-width: 0.7; stroke-linecap: square"/>
   </g>
   <g id="line2d_2">
    <path d="M 139.321152 133.425662
L 499.49856 133.425662
" clip-path="url(#p5d56349b43)" style="fill: none; stroke: #d55e00; stroke-opacity: 0.42; stroke-width: 0.7; stroke-linecap: square"/>
   </g>
   <g id="text_1">
    <text style="font-weight: 700; font-size: 7.5px; font-family: 'Arial', 'Helvetica', 'DejaVu Sans', sans-serif; text-anchor: start; fill: #2e7d32" x="19.82304" y="21.47331" transform="rotate(-0 19.82304 21.47331)">DEPLOYABLE INFERENCE</text>
   </g>
   <g id="patch_28">
    <path d="M 99.505672 75.209516
Q 109.02389 75.209516 117.424074 75.209516
" style="fill: none; stroke: #6f7782; stroke-linecap: round"/>
    <path d="M 113.824074 73.409516
L 117.424074 75.209516
L 113.824074 77.009516
z
" style="fill: #6f7782; stroke: #6f7782; stroke-linecap: round"/>
   </g>
   <g id="patch_29">
    <path d="M 201.331528 75.209516
Q 210.849746 75.209516 219.24993 75.209516
" style="fill: none; stroke: #6f7782; stroke-linecap: round"/>
    <path d="M 215.64993 73.409516
L 219.24993 75.209516
L 215.64993 77.009516
z
" style="fill: #6f7782; stroke: #6f7782; stroke-linecap: round"/>
   </g>
   <g id="patch_30">
    <path d="M 303.157384 75.209516
Q 312.675602 75.209516 321.075786 75.209516
" style="fill: none; stroke: #6f7782; stroke-linecap: round"/>
    <path d="M 317.475786 73.409516
L 321.075786 75.209516
L 317.475786 77.009516
z
" style="fill: #6f7782; stroke: #6f7782; stroke-linecap: round"/>
   </g>
   <g id="patch_31">
    <path d="M 404.98324 75.209516
Q 414.501458 75.209516 422.901642 75.209516
" style="fill: none; stroke: #6f7782; stroke-linecap: round"/>
    <path d="M 419.301642 73.409516
L 422.901642 75.209516
L 419.301642 77.009516
z
" style="fill: #6f7782; stroke: #6f7782; stroke-linecap: round"/>
   </g>
   <g id="text_2">
    <text style="font-weight: 700; font-size: 6px; font-family: 'Arial', 'Helvetica', 'DejaVu Sans', sans-serif; text-anchor: middle; fill: #ffffff" x="24.03072" y="47.926216" transform="rotate(-0 24.03072 47.926216)">1</text>
   </g>
   <g id="text_3">
    <text style="font-weight: 700; font-size: 6px; font-family: 'Arial', 'Helvetica', 'DejaVu Sans', sans-serif; text-anchor: middle; fill: #ffffff" x="125.856576" y="47.926216" transform="rotate(-0 125.856576 47.926216)">2</text>
   </g>
   <g id="text_4">
    <text style="font-weight: 700; font-size: 6px; font-family: 'Arial', 'Helvetica', 'DejaVu Sans', sans-serif; text-anchor: middle; fill: #ffffff" x="227.682432" y="47.926216" transform="rotate(-0 227.682432 47.926216)">3</text>
   </g>
   <g id="text_5">
    <text style="font-weight: 700; font-size: 6px; font-family: 'Arial', 'Helvetica', 'DejaVu Sans', sans-serif; text-anchor: middle; fill: #ffffff" x="329.508288" y="47.926216" transform="rotate(-0 329.508288 47.926216)">4</text>
   </g>
   <g id="text_6">
    <text style="font-weight: 700; font-size: 6px; font-family: 'Arial', 'Helvetica', 'DejaVu Sans', sans-serif; text-anchor: middle; fill: #ffffff" x="431.334144" y="47.926216" transform="rotate(-0 431.334144 47.926216)">5</text>
   </g>
   <g id="text_7">
    <text style="font-weight: 700; font-size: 7.1px; font-family: 'Arial', 'Helvetica', 'DejaVu Sans', sans-serif; text-anchor: middle; fill: #222222" x="58.112928" y="64.17045" transform="rotate(-0 58.112928 64.17045)">New lifetime sample</text>
   </g>
   <g id="text_8">
    <!-- $x_{(1)},\ldots,x_{(n)}$ -->
    <g style="fill: #222222" transform="translate(39.212928 78.92536)">
     <text>
      <tspan x="0" y="-0.0625" style="font-style: oblique; font-size: 7.2px; font-family: 'DejaVu Sans'; fill: #222222">x</tspan>
      <tspan x="26.134695" y="-0.0625" style="font-style: oblique; font-size: 7.2px; font-family: 'DejaVu Sans'; fill: #222222">x</tspan>
      <tspan x="4.25354" y="1.017496" style="font-size: 5.04px; font-family: 'DejaVu Sans'; fill: #222222">(</tspan>
      <tspan x="6.216415" y="1.017496" style="font-size: 5.04px; font-family: 'DejaVu Sans'; fill: #222222">1</tspan>
      <tspan x="9.41745" y="1.017496" style="font-size: 5.04px; font-family: 'DejaVu Sans'; fill: #222222">)</tspan>
      <tspan x="30.388235" y="1.017496" style="font-size: 5.04px; font-family: 'DejaVu Sans'; fill: #222222">(</tspan>
      <tspan x="35.539862" y="1.017496" style="font-size: 5.04px; font-family: 'DejaVu Sans'; fill: #222222">)</tspan>
      <tspan x="11.5772" y="-0.0625" style="font-size: 7.2px; font-family: 'DejaVu Sans'; fill: #222222">,</tspan>
      <tspan x="15.262198" y="-0.0625" style="font-size: 7.2px; font-family: 'DejaVu Sans'; fill: #222222">…</tspan>
      <tspan x="22.449698" y="-0.0625" style="font-size: 7.2px; font-family: 'DejaVu Sans'; fill: #222222">,</tspan>
      <tspan x="32.351111" y="1.017496" style="font-style: oblique; font-size: 5.04px; font-family: 'DejaVu Sans'; fill: #222222">n</tspan>
     </text>
    </g>
   </g>
   <g id="text_9">
    <!-- observed $n$ -->
    <g style="fill: #666666" transform="translate(44.280428 93.499216)">
     <text>
      <tspan x="0" y="-0.0625" style="font-size: 5.5px; font-family: 'Arial'; fill: #666666">o</tspan>
      <tspan x="3.058838" y="-0.0625" style="font-size: 5.5px; font-family: 'Arial'; fill: #666666">b</tspan>
      <tspan x="6.117676" y="-0.0625" style="font-size: 5.5px; font-family: 'Arial'; fill: #666666">s</tspan>
      <tspan x="8.867676" y="-0.0625" style="font-size: 5.5px; font-family: 'Arial'; fill: #666666">e</tspan>
      <tspan x="11.926514" y="-0.0625" style="font-size: 5.5px; font-family: 'Arial'; fill: #666666">r</tspan>
      <tspan x="13.758057" y="-0.0625" style="font-size: 5.5px; font-family: 'Arial'; fill: #666666">v</tspan>
      <tspan x="16.508057" y="-0.0625" style="font-size: 5.5px; font-family: 'Arial'; fill: #666666">e</tspan>
      <tspan x="19.566895" y="-0.0625" style="font-size: 5.5px; font-family: 'Arial'; fill: #666666">d</tspan>
      <tspan x="22.625732" y="-0.0625" style="font-size: 5.5px; font-family: 'Arial'; fill: #666666"> </tspan>
      <tspan x="24.153809" y="-0.0625" style="font-style: oblique; font-size: 5.5px; font-family: 'DejaVu Sans'; fill: #666666">n</tspan>
     </text>
    </g>
   </g>
   <g id="text_10">
    <text style="font-weight: 700; font-size: 7px; font-family: 'Arial', 'Helvetica', 'DejaVu Sans', sans-serif; text-anchor: middle; fill: #222222" x="159.938784" y="64.144571" transform="rotate(-0 159.938784 64.144571)">13 observable features</text>
   </g>
   <g id="text_11">
    <text style="font-size: 5.2px; font-family: 'Arial', 'Helvetica', 'DejaVu Sans', sans-serif; text-anchor: middle; fill: #222222" x="159.938784" y="79.2756" transform="rotate(-0 159.938784 79.2756)">order statistics · quantiles</text>
   </g>
   <g id="text_12">
    <text style="font-size: 5.2px; font-family: 'Arial', 'Helvetica', 'DejaVu Sans', sans-serif; text-anchor: middle; fill: #666666" x="159.938784" y="91.607992" transform="rotate(-0 159.938784 91.607992)">scale · dispersion · shape</text>
   </g>
   <g id="text_13">
    <text style="font-weight: 700; font-size: 7.1px; font-family: 'Arial', 'Helvetica', 'DejaVu Sans', sans-serif; text-anchor: middle; fill: #222222" x="261.76464" y="62.71958" transform="rotate(-0 261.76464 62.71958)">Vector-output MLP</text>
   </g>
   <g id="text_14">
    <text style="font-size: 5.7px; font-family: 'Arial', 'Helvetica', 'DejaVu Sans', sans-serif; text-anchor: middle; fill: #222222" x="261.76464" y="77.954125" transform="rotate(-0 261.76464 77.954125)">13 → 256 → 128 → 64 → 26</text>
   </g>
   <g id="text_15">
    <!-- no candidate $\delta$ input -->
    <g style="fill: #2e7d32" transform="translate(234.86964 92.834206)">
     <text>
      <tspan x="0" y="-0.921875" style="font-weight: 700; font-size: 5.5px; font-family: 'Arial'; fill: #2e7d32">n</tspan>
      <tspan x="3.359619" y="-0.921875" style="font-weight: 700; font-size: 5.5px; font-family: 'Arial'; fill: #2e7d32">o</tspan>
      <tspan x="6.719238" y="-0.921875" style="font-weight: 700; font-size: 5.5px; font-family: 'Arial'; fill: #2e7d32"> </tspan>
      <tspan x="8.247314" y="-0.921875" style="font-weight: 700; font-size: 5.5px; font-family: 'Arial'; fill: #2e7d32">c</tspan>
      <tspan x="11.306152" y="-0.921875" style="font-weight: 700; font-size: 5.5px; font-family: 'Arial'; fill: #2e7d32">a</tspan>
      <tspan x="14.36499" y="-0.921875" style="font-weight: 700; font-size: 5.5px; font-family: 'Arial'; fill: #2e7d32">n</tspan>
      <tspan x="17.724609" y="-0.921875" style="font-weight: 700; font-size: 5.5px; font-family: 'Arial'; fill: #2e7d32">d</tspan>
      <tspan x="21.084229" y="-0.921875" style="font-weight: 700; font-size: 5.5px; font-family: 'Arial'; fill: #2e7d32">i</tspan>
      <tspan x="22.612305" y="-0.921875" style="font-weight: 700; font-size: 5.5px; font-family: 'Arial'; fill: #2e7d32">d</tspan>
      <tspan x="25.971924" y="-0.921875" style="font-weight: 700; font-size: 5.5px; font-family: 'Arial'; fill: #2e7d32">a</tspan>
      <tspan x="29.030762" y="-0.921875" style="font-weight: 700; font-size: 5.5px; font-family: 'Arial'; fill: #2e7d32">t</tspan>
      <tspan x="30.862305" y="-0.921875" style="font-weight: 700; font-size: 5.5px; font-family: 'Arial'; fill: #2e7d32">e</tspan>
      <tspan x="33.921143" y="-0.921875" style="font-weight: 700; font-size: 5.5px; font-family: 'Arial'; fill: #2e7d32"> </tspan>
      <tspan x="38.814209" y="-0.921875" style="font-weight: 700; font-size: 5.5px; font-family: 'Arial'; fill: #2e7d32"> </tspan>
      <tspan x="40.342285" y="-0.921875" style="font-weight: 700; font-size: 5.5px; font-family: 'Arial'; fill: #2e7d32">i</tspan>
      <tspan x="41.870361" y="-0.921875" style="font-weight: 700; font-size: 5.5px; font-family: 'Arial'; fill: #2e7d32">n</tspan>
      <tspan x="45.22998" y="-0.921875" style="font-weight: 700; font-size: 5.5px; font-family: 'Arial'; fill: #2e7d32">p</tspan>
      <tspan x="48.5896" y="-0.921875" style="font-weight: 700; font-size: 5.5px; font-family: 'Arial'; fill: #2e7d32">u</tspan>
      <tspan x="51.949219" y="-0.921875" style="font-weight: 700; font-size: 5.5px; font-family: 'Arial'; fill: #2e7d32">t</tspan>
      <tspan x="35.449219" y="-0.921875" style="font-style: oblique; font-size: 5.5px; font-family: 'DejaVu Sans'; fill: #2e7d32">δ</tspan>
     </text>
    </g>
   </g>
   <g id="text_16">
    <text style="font-weight: 700; font-size: 7px; font-family: 'Arial', 'Helvetica', 'DejaVu Sans', sans-serif; text-anchor: middle; fill: #222222" x="363.590496" y="61.605549" transform="rotate(-0 363.590496 61.605549)">Predicted loss vector</text>
   </g>
   <g id="text_17">
    <!-- $\hat{\ell}_i(\delta_0),\ldots,\hat{\ell}_i(\delta_{25})$ -->
    <g style="fill: #666666" transform="translate(343.741996 94.096968)">
     <text>
      <tspan x="2.703266" y="-1.765625" style="font-size: 5.3px; font-family: 'DejaVu Sans'; fill: #666666">̂</tspan>
      <tspan x="3.413864" y="-0.134375" style="font-size: 5.3px; font-family: 'DejaVu Sans'; fill: #666666">(</tspan>
      <tspan x="11.22505" y="-0.134375" style="font-size: 5.3px; font-family: 'DejaVu Sans'; fill: #666666">)</tspan>
      <tspan x="13.291563" y="-0.134375" style="font-size: 5.3px; font-family: 'DejaVu Sans'; fill: #666666">,</tspan>
      <tspan x="16.007255" y="-0.134375" style="font-size: 5.3px; font-family: 'DejaVu Sans'; fill: #666666">…</tspan>
      <tspan x="21.30413" y="-0.134375" style="font-size: 5.3px; font-family: 'DejaVu Sans'; fill: #666666">,</tspan>
      <tspan x="26.723088" y="-1.765625" style="font-size: 5.3px; font-family: 'DejaVu Sans'; fill: #666666">̂</tspan>
      <tspan x="27.433686" y="-0.134375" style="font-size: 5.3px; font-family: 'DejaVu Sans'; fill: #666666">(</tspan>
      <tspan x="37.6039" y="-0.134375" style="font-size: 5.3px; font-family: 'DejaVu Sans'; fill: #666666">)</tspan>
      <tspan x="0" y="-0.134375" style="font-style: oblique; font-size: 5.3px; font-family: 'DejaVu Sans'; fill: #666666">ℓ</tspan>
      <tspan x="5.480377" y="-0.134375" style="font-style: oblique; font-size: 5.3px; font-family: 'DejaVu Sans'; fill: #666666">δ</tspan>
      <tspan x="24.019822" y="-0.134375" style="font-style: oblique; font-size: 5.3px; font-family: 'DejaVu Sans'; fill: #666666">ℓ</tspan>
      <tspan x="29.500199" y="-0.134375" style="font-style: oblique; font-size: 5.3px; font-family: 'DejaVu Sans'; fill: #666666">δ</tspan>
      <tspan x="2.238787" y="0.660622" style="font-style: oblique; font-size: 3.71px; font-family: 'DejaVu Sans'; fill: #666666">i</tspan>
      <tspan x="26.258609" y="0.660622" style="font-style: oblique; font-size: 3.71px; font-family: 'DejaVu Sans'; fill: #666666">i</tspan>
      <tspan x="8.721099" y="0.660622" style="font-size: 3.71px; font-family: 'DejaVu Sans'; fill: #666666">0</tspan>
      <tspan x="32.740921" y="0.660622" style="font-size: 3.71px; font-family: 'DejaVu Sans'; fill: #666666">2</tspan>
      <tspan x="35.09995" y="0.660622" style="font-size: 3.71px; font-family: 'DejaVu Sans'; fill: #666666">5</tspan>
     </text>
    </g>
   </g>
   <g id="text_18">
    <text style="font-weight: 700; font-size: 7.1px; font-family: 'Arial', 'Helvetica', 'DejaVu Sans', sans-serif; text-anchor: middle; fill: #222222" x="465.416352" y="62.71958" transform="rotate(-0 465.416352 62.71958)">Select offset</text>
   </g>
   <g id="text_19">
    <!-- $\hat{\delta}_i=\arg\min_{\delta_j}\hat{\ell}_i(\delta_j)$ -->
    <g style="fill: #222222" transform="translate(441.757352 77.039527)">
     <text>
      <tspan x="3.291622" y="-2.28125" style="font-size: 5.9px; font-family: 'DejaVu Sans'; fill: #222222">̂</tspan>
      <tspan x="6.115048" y="-0.465625" style="font-size: 5.9px; font-family: 'DejaVu Sans'; fill: #222222">=</tspan>
      <tspan x="12.198385" y="-0.465625" style="font-size: 5.9px; font-family: 'DejaVu Sans'; fill: #222222">a</tspan>
      <tspan x="15.808127" y="-0.465625" style="font-size: 5.9px; font-family: 'DejaVu Sans'; fill: #222222">r</tspan>
      <tspan x="18.229956" y="-0.465625" style="font-size: 5.9px; font-family: 'DejaVu Sans'; fill: #222222">g</tspan>
      <tspan x="22.925506" y="-0.465625" style="font-size: 5.9px; font-family: 'DejaVu Sans'; fill: #222222">m</tspan>
      <tspan x="28.663696" y="-0.465625" style="font-size: 5.9px; font-family: 'DejaVu Sans'; fill: #222222">i</tspan>
      <tspan x="30.300308" y="-0.465625" style="font-size: 5.9px; font-family: 'DejaVu Sans'; fill: #222222">n</tspan>
      <tspan x="37.03268" y="-2.28125" style="font-size: 5.9px; font-family: 'DejaVu Sans'; fill: #222222">̂</tspan>
      <tspan x="37.830477" y="-0.465625" style="font-size: 5.9px; font-family: 'DejaVu Sans'; fill: #222222">(</tspan>
      <tspan x="45.039579" y="-0.465625" style="font-size: 5.9px; font-family: 'DejaVu Sans'; fill: #222222">)</tspan>
      <tspan x="0" y="-0.465625" style="font-style: oblique; font-size: 5.9px; font-family: 'DejaVu Sans'; fill: #222222">δ</tspan>
      <tspan x="34.033721" y="-0.465625" style="font-style: oblique; font-size: 5.9px; font-family: 'DejaVu Sans'; fill: #222222">ℓ</tspan>
      <tspan x="40.128634" y="-0.465625" style="font-style: oblique; font-size: 5.9px; font-family: 'DejaVu Sans'; fill: #222222">δ</tspan>
      <tspan x="3.660453" y="0.419372" style="font-style: oblique; font-size: 4.13px; font-family: 'DejaVu Sans'; fill: #222222">i</tspan>
      <tspan x="26.925506" y="3.703125" style="font-style: oblique; font-size: 4.13px; font-family: 'DejaVu Sans'; fill: #222222">δ</tspan>
      <tspan x="36.523521" y="0.419372" style="font-style: oblique; font-size: 4.13px; font-family: 'DejaVu Sans'; fill: #222222">i</tspan>
      <tspan x="43.732622" y="0.419372" style="font-style: oblique; font-size: 4.13px; font-family: 'DejaVu Sans'; fill: #222222">j</tspan>
      <tspan x="29.448298" y="4.322623" style="font-style: oblique; font-size: 2.891px; font-family: 'DejaVu Sans'; fill: #222222">j</tspan>
     </text>
    </g>
   </g>
   <g id="text_20">
    <!-- $\delta_j=0.02j,\ j=0,\ldots,25$ -->
    <g style="fill: #666666" transform="translate(436.663852 92.932159)">
     <text>
      <tspan x="0" y="-0.96875" style="font-style: oblique; font-size: 5.3px; font-family: 'DejaVu Sans'; fill: #666666">δ</tspan>
      <tspan x="22.711777" y="-0.96875" style="font-style: oblique; font-size: 5.3px; font-family: 'DejaVu Sans'; fill: #666666">j</tspan>
      <tspan x="28.619036" y="-0.96875" style="font-style: oblique; font-size: 5.3px; font-family: 'DejaVu Sans'; fill: #666666">j</tspan>
      <tspan x="3.240723" y="-0.173753" style="font-style: oblique; font-size: 3.71px; font-family: 'DejaVu Sans'; fill: #666666">j</tspan>
      <tspan x="5.44776" y="-0.96875" style="font-size: 5.3px; font-family: 'DejaVu Sans'; fill: #666666">=</tspan>
      <tspan x="10.917923" y="-0.96875" style="font-size: 5.3px; font-family: 'DejaVu Sans'; fill: #666666">0</tspan>
      <tspan x="14.287964" y="-0.96875" style="font-size: 5.3px; font-family: 'DejaVu Sans'; fill: #666666">.</tspan>
      <tspan x="15.971695" y="-0.96875" style="font-size: 5.3px; font-family: 'DejaVu Sans'; fill: #666666">0</tspan>
      <tspan x="19.341736" y="-0.96875" style="font-size: 5.3px; font-family: 'DejaVu Sans'; fill: #666666">2</tspan>
      <tspan x="24.183426" y="-0.96875" style="font-size: 5.3px; font-family: 'DejaVu Sans'; fill: #666666">,</tspan>
      <tspan x="31.122646" y="-0.96875" style="font-size: 5.3px; font-family: 'DejaVu Sans'; fill: #666666">=</tspan>
      <tspan x="36.592809" y="-0.96875" style="font-size: 5.3px; font-family: 'DejaVu Sans'; fill: #666666">0</tspan>
      <tspan x="39.96285" y="-0.96875" style="font-size: 5.3px; font-family: 'DejaVu Sans'; fill: #666666">,</tspan>
      <tspan x="42.678542" y="-0.96875" style="font-size: 5.3px; font-family: 'DejaVu Sans'; fill: #666666">…</tspan>
      <tspan x="47.975417" y="-0.96875" style="font-size: 5.3px; font-family: 'DejaVu Sans'; fill: #666666">,</tspan>
      <tspan x="50.691109" y="-0.96875" style="font-size: 5.3px; font-family: 'DejaVu Sans'; fill: #666666">2</tspan>
      <tspan x="54.06115" y="-0.96875" style="font-size: 5.3px; font-family: 'DejaVu Sans'; fill: #666666">5</tspan>
     </text>
    </g>
   </g>
   <g id="text_21">
    <text style="font-weight: 700; font-size: 7.2px; font-family: 'Arial', 'Helvetica', 'DejaVu Sans', sans-serif; text-anchor: start; fill: #d55e00" x="19.82304" y="135.288943" transform="rotate(-0 19.82304 135.288943)">OFFLINE TRAINING AND EVALUATION</text>
   </g>
   <g id="text_22">
    <text style="font-weight: 700; font-size: 6.5px; font-family: 'Arial', 'Helvetica', 'DejaVu Sans', sans-serif; text-anchor: start; fill: #222222" x="64.845216" y="170.654034" transform="rotate(-0 64.845216 170.654034)">Training labels (formal MC only)</text>
   </g>
   <g id="text_23">
    <!-- raw per-sample vector $[\ell_i(\delta_0),\ldots,\ell_i(\delta_{25})]$ -->
    <g style="fill: #222222" transform="translate(64.845216 185.32717)">
     <text>
      <tspan x="0" y="-0.90625" style="font-size: 5.4px; font-family: 'Arial'; fill: #222222">r</tspan>
      <tspan x="1.79512" y="-0.90625" style="font-size: 5.4px; font-family: 'Arial'; fill: #222222">a</tspan>
      <tspan x="4.793137" y="-0.90625" style="font-size: 5.4px; font-family: 'Arial'; fill: #222222">w</tspan>
      <tspan x="8.686081" y="-0.90625" style="font-size: 5.4px; font-family: 'Arial'; fill: #222222"> </tspan>
      <tspan x="10.183777" y="-0.90625" style="font-size: 5.4px; font-family: 'Arial'; fill: #222222">p</tspan>
      <tspan x="13.181793" y="-0.90625" style="font-size: 5.4px; font-family: 'Arial'; fill: #222222">e</tspan>
      <tspan x="16.17981" y="-0.90625" style="font-size: 5.4px; font-family: 'Arial'; fill: #222222">r</tspan>
      <tspan x="17.97493" y="-0.90625" style="font-size: 5.4px; font-family: 'Arial'; fill: #222222">-</tspan>
      <tspan x="19.77005" y="-0.90625" style="font-size: 5.4px; font-family: 'Arial'; fill: #222222">s</tspan>
      <tspan x="22.465363" y="-0.90625" style="font-size: 5.4px; font-family: 'Arial'; fill: #222222">a</tspan>
      <tspan x="25.463379" y="-0.90625" style="font-size: 5.4px; font-family: 'Arial'; fill: #222222">m</tspan>
      <tspan x="29.953812" y="-0.90625" style="font-size: 5.4px; font-family: 'Arial'; fill: #222222">p</tspan>
      <tspan x="32.951828" y="-0.90625" style="font-size: 5.4px; font-family: 'Arial'; fill: #222222">l</tspan>
      <tspan x="34.14946" y="-0.90625" style="font-size: 5.4px; font-family: 'Arial'; fill: #222222">e</tspan>
      <tspan x="37.147476" y="-0.90625" style="font-size: 5.4px; font-family: 'Arial'; fill: #222222"> </tspan>
      <tspan x="38.645172" y="-0.90625" style="font-size: 5.4px; font-family: 'Arial'; fill: #222222">v</tspan>
      <tspan x="41.340485" y="-0.90625" style="font-size: 5.4px; font-family: 'Arial'; fill: #222222">e</tspan>
      <tspan x="44.338501" y="-0.90625" style="font-size: 5.4px; font-family: 'Arial'; fill: #222222">c</tspan>
      <tspan x="47.033813" y="-0.90625" style="font-size: 5.4px; font-family: 'Arial'; fill: #222222">t</tspan>
      <tspan x="48.531509" y="-0.90625" style="font-size: 5.4px; font-family: 'Arial'; fill: #222222">o</tspan>
      <tspan x="51.529526" y="-0.90625" style="font-size: 5.4px; font-family: 'Arial'; fill: #222222">r</tspan>
      <tspan x="53.324646" y="-0.90625" style="font-size: 5.4px; font-family: 'Arial'; fill: #222222"> </tspan>
      <tspan x="54.822342" y="-0.90625" style="font-size: 5.4px; font-family: 'DejaVu Sans'; fill: #222222">[</tspan>
      <tspan x="60.348265" y="-0.90625" style="font-size: 5.4px; font-family: 'DejaVu Sans'; fill: #222222">(</tspan>
      <tspan x="68.297871" y="-0.90625" style="font-size: 5.4px; font-family: 'DejaVu Sans'; fill: #222222">)</tspan>
      <tspan x="70.40096" y="-0.90625" style="font-size: 5.4px; font-family: 'DejaVu Sans'; fill: #222222">,</tspan>
      <tspan x="73.164717" y="-0.90625" style="font-size: 5.4px; font-family: 'DejaVu Sans'; fill: #222222">…</tspan>
      <tspan x="78.555342" y="-0.90625" style="font-size: 5.4px; font-family: 'DejaVu Sans'; fill: #222222">,</tspan>
      <tspan x="84.741934" y="-0.90625" style="font-size: 5.4px; font-family: 'DejaVu Sans'; fill: #222222">(</tspan>
      <tspan x="95.092322" y="-0.90625" style="font-size: 5.4px; font-family: 'DejaVu Sans'; fill: #222222">)</tspan>
      <tspan x="97.19541" y="-0.90625" style="font-size: 5.4px; font-family: 'DejaVu Sans'; fill: #222222">]</tspan>
      <tspan x="56.92543" y="-0.90625" style="font-style: oblique; font-size: 5.4px; font-family: 'DejaVu Sans'; fill: #222222">ℓ</tspan>
      <tspan x="62.451353" y="-0.90625" style="font-style: oblique; font-size: 5.4px; font-family: 'DejaVu Sans'; fill: #222222">δ</tspan>
      <tspan x="81.319099" y="-0.90625" style="font-style: oblique; font-size: 5.4px; font-family: 'DejaVu Sans'; fill: #222222">ℓ</tspan>
      <tspan x="86.845023" y="-0.90625" style="font-style: oblique; font-size: 5.4px; font-family: 'DejaVu Sans'; fill: #222222">δ</tspan>
      <tspan x="59.152222" y="-0.096253" style="font-style: oblique; font-size: 3.78px; font-family: 'DejaVu Sans'; fill: #222222">i</tspan>
      <tspan x="83.545891" y="-0.096253" style="font-style: oblique; font-size: 3.78px; font-family: 'DejaVu Sans'; fill: #222222">i</tspan>
      <tspan x="65.749434" y="-0.096253" style="font-size: 3.78px; font-family: 'DejaVu Sans'; fill: #222222">0</tspan>
      <tspan x="90.143103" y="-0.096253" style="font-size: 3.78px; font-family: 'DejaVu Sans'; fill: #222222">2</tspan>
      <tspan x="92.543884" y="-0.096253" style="font-size: 3.78px; font-family: 'DejaVu Sans'; fill: #222222">5</tspan>
     </text>
    </g>
   </g>
   <g id="text_24">
    <text style="font-size: 5.2px; font-family: 'Arial', 'Helvetica', 'DejaVu Sans', sans-serif; text-anchor: start; fill: #666666" x="64.845216" y="198.246913" transform="rotate(-0 64.845216 198.246913)">5-fold full-combination holdout</text>
   </g>
   <g id="patch_32">
    <path d="M 251.898094 154.566355
Q 247.318285 130.099296 253.653836 107.069041
" style="fill: none; stroke-dasharray: 3.33,1.44; stroke-dashoffset: 0; stroke: #d55e00; stroke-width: 0.9; stroke-linecap: round"/>
    <path d="M 250.963433 110.062656
L 253.653836 107.069041
L 254.434487 111.017532
z
" style="fill: #d55e00; stroke-dasharray: 3.33,1.44; stroke-dashoffset: 0; stroke: #d55e00; stroke-width: 0.9; stroke-linecap: round"/>
   </g>
   <g id="text_25">
    <text style="font-size: 4.9px; font-family: 'Arial', 'Helvetica', 'DejaVu Sans', sans-serif; text-anchor: middle; fill: #d55e00" x="248.300064" y="127.80205" transform="rotate(-0 248.300064 127.80205)">fit targets</text>
   </g>
   <g id="text_26">
    <text style="font-weight: 700; font-size: 6.3px; font-family: 'Arial', 'Helvetica', 'DejaVu Sans', sans-serif; text-anchor: start; fill: #222222" x="314.36064" y="170.602279" transform="rotate(-0 314.36064 170.602279)">Evaluation only — not a deployment input</text>
   </g>
   <g id="text_27">
    <!-- run MDM at $\hat{\delta}_i$ → true selected-loss $\ell_i(\hat{\delta}_i)$ -->
    <g style="fill: #222222" transform="translate(314.36064 186.182215)">
     <text>
      <tspan x="0" y="-0.25625" style="font-size: 5.2px; font-family: 'Arial'; fill: #222222">r</tspan>
      <tspan x="1.727478" y="-0.25625" style="font-size: 5.2px; font-family: 'Arial'; fill: #222222">u</tspan>
      <tspan x="4.612518" y="-0.25625" style="font-size: 5.2px; font-family: 'Arial'; fill: #222222">n</tspan>
      <tspan x="7.497559" y="-0.25625" style="font-size: 5.2px; font-family: 'Arial'; fill: #222222"> </tspan>
      <tspan x="8.938812" y="-0.25625" style="font-size: 5.2px; font-family: 'Arial'; fill: #222222">M</tspan>
      <tspan x="13.26004" y="-0.25625" style="font-size: 5.2px; font-family: 'Arial'; fill: #222222">D</tspan>
      <tspan x="17.006287" y="-0.25625" style="font-size: 5.2px; font-family: 'Arial'; fill: #222222">M</tspan>
      <tspan x="21.327515" y="-0.25625" style="font-size: 5.2px; font-family: 'Arial'; fill: #222222"> </tspan>
      <tspan x="22.768768" y="-0.25625" style="font-size: 5.2px; font-family: 'Arial'; fill: #222222">a</tspan>
      <tspan x="25.653809" y="-0.25625" style="font-size: 5.2px; font-family: 'Arial'; fill: #222222">t</tspan>
      <tspan x="27.095062" y="-0.25625" style="font-size: 5.2px; font-family: 'Arial'; fill: #222222"> </tspan>
      <tspan x="32.910944" y="-0.25625" style="font-size: 5.2px; font-family: 'Arial'; fill: #222222"> </tspan>
      <tspan x="34.352198" y="-0.25625" style="font-size: 5.2px; font-family: 'Arial'; fill: #222222">→</tspan>
      <tspan x="39.539698" y="-0.25625" style="font-size: 5.2px; font-family: 'Arial'; fill: #222222"> </tspan>
      <tspan x="40.980952" y="-0.25625" style="font-size: 5.2px; font-family: 'Arial'; fill: #222222">t</tspan>
      <tspan x="42.422205" y="-0.25625" style="font-size: 5.2px; font-family: 'Arial'; fill: #222222">r</tspan>
      <tspan x="44.149683" y="-0.25625" style="font-size: 5.2px; font-family: 'Arial'; fill: #222222">u</tspan>
      <tspan x="47.034724" y="-0.25625" style="font-size: 5.2px; font-family: 'Arial'; fill: #222222">e</tspan>
      <tspan x="49.919764" y="-0.25625" style="font-size: 5.2px; font-family: 'Arial'; fill: #222222"> </tspan>
      <tspan x="51.361017" y="-0.25625" style="font-size: 5.2px; font-family: 'Arial'; fill: #222222">s</tspan>
      <tspan x="53.954767" y="-0.25625" style="font-size: 5.2px; font-family: 'Arial'; fill: #222222">e</tspan>
      <tspan x="56.839808" y="-0.25625" style="font-size: 5.2px; font-family: 'Arial'; fill: #222222">l</tspan>
      <tspan x="57.992304" y="-0.25625" style="font-size: 5.2px; font-family: 'Arial'; fill: #222222">e</tspan>
      <tspan x="60.877344" y="-0.25625" style="font-size: 5.2px; font-family: 'Arial'; fill: #222222">c</tspan>
      <tspan x="63.471094" y="-0.25625" style="font-size: 5.2px; font-family: 'Arial'; fill: #222222">t</tspan>
      <tspan x="64.912348" y="-0.25625" style="font-size: 5.2px; font-family: 'Arial'; fill: #222222">e</tspan>
      <tspan x="67.797388" y="-0.25625" style="font-size: 5.2px; font-family: 'Arial'; fill: #222222">d</tspan>
      <tspan x="70.682429" y="-0.25625" style="font-size: 5.2px; font-family: 'Arial'; fill: #222222">-</tspan>
      <tspan x="72.409907" y="-0.25625" style="font-size: 5.2px; font-family: 'Arial'; fill: #222222">l</tspan>
      <tspan x="73.562403" y="-0.25625" style="font-size: 5.2px; font-family: 'Arial'; fill: #222222">o</tspan>
      <tspan x="76.447443" y="-0.25625" style="font-size: 5.2px; font-family: 'Arial'; fill: #222222">s</tspan>
      <tspan x="79.041193" y="-0.25625" style="font-size: 5.2px; font-family: 'Arial'; fill: #222222">s</tspan>
      <tspan x="81.634943" y="-0.25625" style="font-size: 5.2px; font-family: 'Arial'; fill: #222222"> </tspan>
      <tspan x="31.43914" y="-1.84375" style="font-size: 5.2px; font-family: 'DejaVu Sans'; fill: #222222">̂</tspan>
      <tspan x="86.370145" y="-0.25625" style="font-size: 5.2px; font-family: 'DejaVu Sans'; fill: #222222">(</tspan>
      <tspan x="91.296804" y="-1.84375" style="font-size: 5.2px; font-family: 'DejaVu Sans'; fill: #222222">̂</tspan>
      <tspan x="92.768608" y="-0.25625" style="font-size: 5.2px; font-family: 'DejaVu Sans'; fill: #222222">)</tspan>
      <tspan x="28.536316" y="-0.25625" style="font-style: oblique; font-size: 5.2px; font-family: 'DejaVu Sans'; fill: #222222">δ</tspan>
      <tspan x="83.076197" y="-0.25625" style="font-style: oblique; font-size: 5.2px; font-family: 'DejaVu Sans'; fill: #222222">ℓ</tspan>
      <tspan x="88.393979" y="-0.25625" style="font-style: oblique; font-size: 5.2px; font-family: 'DejaVu Sans'; fill: #222222">δ</tspan>
      <tspan x="31.759879" y="0.523747" style="font-style: oblique; font-size: 3.64px; font-family: 'DejaVu Sans'; fill: #222222">i</tspan>
      <tspan x="85.21908" y="0.523747" style="font-style: oblique; font-size: 3.64px; font-family: 'DejaVu Sans'; fill: #222222">i</tspan>
      <tspan x="91.617543" y="0.523747" style="font-style: oblique; font-size: 3.64px; font-family: 'DejaVu Sans'; fill: #222222">i</tspan>
     </text>
    </g>
   </g>
   <g id="text_28">
    <!-- aggregate after selection: $J_1=\sqrt{\operatorname{mean}_i\ell_i(\hat{\delta}_i)}$ -->
    <g style="fill: #666666" transform="translate(314.36064 200.17721)">
     <text>
      <tspan x="0" y="-0.311747" style="font-size: 5.2px; font-family: 'Arial'; fill: #666666">a</tspan>
      <tspan x="2.88504" y="-0.311747" style="font-size: 5.2px; font-family: 'Arial'; fill: #666666">g</tspan>
      <tspan x="5.770081" y="-0.311747" style="font-size: 5.2px; font-family: 'Arial'; fill: #666666">g</tspan>
      <tspan x="8.655121" y="-0.311747" style="font-size: 5.2px; font-family: 'Arial'; fill: #666666">r</tspan>
      <tspan x="10.382599" y="-0.311747" style="font-size: 5.2px; font-family: 'Arial'; fill: #666666">e</tspan>
      <tspan x="13.267639" y="-0.311747" style="font-size: 5.2px; font-family: 'Arial'; fill: #666666">g</tspan>
      <tspan x="16.152679" y="-0.311747" style="font-size: 5.2px; font-family: 'Arial'; fill: #666666">a</tspan>
      <tspan x="19.03772" y="-0.311747" style="font-size: 5.2px; font-family: 'Arial'; fill: #666666">t</tspan>
      <tspan x="20.478973" y="-0.311747" style="font-size: 5.2px; font-family: 'Arial'; fill: #666666">e</tspan>
      <tspan x="23.364014" y="-0.311747" style="font-size: 5.2px; font-family: 'Arial'; fill: #666666"> </tspan>
      <tspan x="24.805267" y="-0.311747" style="font-size: 5.2px; font-family: 'Arial'; fill: #666666">a</tspan>
      <tspan x="27.690308" y="-0.311747" style="font-size: 5.2px; font-family: 'Arial'; fill: #666666">f</tspan>
      <tspan x="29.131561" y="-0.311747" style="font-size: 5.2px; font-family: 'Arial'; fill: #666666">t</tspan>
      <tspan x="30.572815" y="-0.311747" style="font-size: 5.2px; font-family: 'Arial'; fill: #666666">e</tspan>
      <tspan x="33.457855" y="-0.311747" style="font-size: 5.2px; font-family: 'Arial'; fill: #666666">r</tspan>
      <tspan x="35.185333" y="-0.311747" style="font-size: 5.2px; font-family: 'Arial'; fill: #666666"> </tspan>
      <tspan x="36.626587" y="-0.311747" style="font-size: 5.2px; font-family: 'Arial'; fill: #666666">s</tspan>
      <tspan x="39.220337" y="-0.311747" style="font-size: 5.2px; font-family: 'Arial'; fill: #666666">e</tspan>
      <tspan x="42.105377" y="-0.311747" style="font-size: 5.2px; font-family: 'Arial'; fill: #666666">l</tspan>
      <tspan x="43.257874" y="-0.311747" style="font-size: 5.2px; font-family: 'Arial'; fill: #666666">e</tspan>
      <tspan x="46.142914" y="-0.311747" style="font-size: 5.2px; font-family: 'Arial'; fill: #666666">c</tspan>
      <tspan x="48.736664" y="-0.311747" style="font-size: 5.2px; font-family: 'Arial'; fill: #666666">t</tspan>
      <tspan x="50.177917" y="-0.311747" style="font-size: 5.2px; font-family: 'Arial'; fill: #666666">i</tspan>
      <tspan x="51.330414" y="-0.311747" style="font-size: 5.2px; font-family: 'Arial'; fill: #666666">o</tspan>
      <tspan x="54.215454" y="-0.311747" style="font-size: 5.2px; font-family: 'Arial'; fill: #666666">n</tspan>
      <tspan x="57.100494" y="-0.311747" style="font-size: 5.2px; font-family: 'Arial'; fill: #666666">:</tspan>
      <tspan x="58.541748" y="-0.311747" style="font-size: 5.2px; font-family: 'Arial'; fill: #666666"> </tspan>
      <tspan x="59.983002" y="-0.311747" style="font-style: oblique; font-size: 5.2px; font-family: 'DejaVu Sans'; fill: #666666">J</tspan>
      <tspan x="92.411745" y="0.06875" style="font-style: oblique; font-size: 5.2px; font-family: 'DejaVu Sans'; fill: #666666">ℓ</tspan>
      <tspan x="97.729528" y="0.06875" style="font-style: oblique; font-size: 5.2px; font-family: 'DejaVu Sans'; fill: #666666">δ</tspan>
      <tspan x="61.512909" y="0.46825" style="font-size: 3.64px; font-family: 'DejaVu Sans'; fill: #666666">1</tspan>
      <tspan x="64.976059" y="-0.311747" style="font-size: 5.2px; font-family: 'DejaVu Sans'; fill: #666666">=</tspan>
      <tspan x="75.657263" y="0.06875" style="font-size: 5.2px; font-family: 'DejaVu Sans'; fill: #666666">m</tspan>
      <tspan x="80.710516" y="0.06875" style="font-size: 5.2px; font-family: 'DejaVu Sans'; fill: #666666">e</tspan>
      <tspan x="83.902045" y="0.06875" style="font-size: 5.2px; font-family: 'DejaVu Sans'; fill: #666666">a</tspan>
      <tspan x="87.080908" y="0.06875" style="font-size: 5.2px; font-family: 'DejaVu Sans'; fill: #666666">n</tspan>
      <tspan x="95.705694" y="0.06875" style="font-size: 5.2px; font-family: 'DejaVu Sans'; fill: #666666">(</tspan>
      <tspan x="100.632352" y="-1.51875" style="font-size: 5.2px; font-family: 'DejaVu Sans'; fill: #666666">̂</tspan>
      <tspan x="102.104156" y="0.06875" style="font-size: 5.2px; font-family: 'DejaVu Sans'; fill: #666666">)</tspan>
      <tspan x="70.333267" y="-0.828625" style="font-size: 4.423986px; font-family: 'STIXSizeOneSym'; fill: #666666">√</tspan>
      <tspan x="90.418455" y="0.848747" style="font-style: oblique; font-size: 3.64px; font-family: 'DejaVu Sans'; fill: #666666">i</tspan>
      <tspan x="94.554629" y="0.848747" style="font-style: oblique; font-size: 3.64px; font-family: 'DejaVu Sans'; fill: #666666">i</tspan>
      <tspan x="100.953091" y="0.848747" style="font-style: oblique; font-size: 3.64px; font-family: 'DejaVu Sans'; fill: #666666">i</tspan>
     </text>
     <rect x="75.007263" y="-8.675" width="29.770727" height="0.325"/>
    </g>
   </g>
   <g id="patch_33">
    <path d="M 465.417974 106.133463
Q 465.533291 130.958254 472.796605 153.642649
" style="fill: none; stroke-dasharray: 3.33,1.44; stroke-dashoffset: 0; stroke: #d55e00; stroke-width: 0.9; stroke-linecap: round"/>
    <path d="M 473.413091 149.665219
L 472.796605 153.642649
L 469.984553 150.763002
z
" style="fill: #d55e00; stroke-dasharray: 3.33,1.44; stroke-dashoffset: 0; stroke: #d55e00; stroke-width: 0.9; stroke-linecap: round"/>
   </g>
   <g id="text_29">
    <text style="font-size: 5.1px; font-family: 'Arial', 'Helvetica', 'DejaVu Sans', sans-serif; text-anchor: middle; fill: #a64b4b" x="259.6608" y="148.891416" transform="rotate(-0 259.6608 148.891416)">Excluded from model input: true β · true γ/η · configuration ID · seed · repeat_id · candidate δ</text>
   </g>
  </g>
 </g>
 <defs>
  <clipPath id="p5d56349b43">
   <rect x="7.2" y="7.2" width="504.9216" height="224.8848"/>
  </clipPath>
 </defs>
</svg>
