<?xml version="1.0" encoding="utf-8" standalone="no"?>
<!DOCTYPE svg PUBLIC "-//W3C//DTD SVG 1.1//EN"
  "http://www.w3.org/Graphics/SVG/1.1/DTD/svg11.dtd">
<svg xmlns:xlink="http://www.w3.org/1999/xlink" width="864pt" height="345.6pt" viewBox="0 0 864 345.6" xmlns="http://www.w3.org/2000/svg" version="1.1">
 <metadata>
  <rdf:RDF xmlns:dc="http://purl.org/dc/elements/1.1/" xmlns:cc="http://creativecommons.org/ns#" xmlns:rdf="http://www.w3.org/1999/02/22-rdf-syntax-ns#">
   <cc:Work>
    <dc:type rdf:resource="http://purl.org/dc/dcmitype/StillImage"/>
    <dc:date>2026-09-27T23:54:15.368865</dc:date>
    <dc:format>image/svg+xml</dc:format>
    <dc:creator>
     <cc:Agent>
      <dc:title>Matplotlib v3.11.2, https://matplotlib.org/</dc:title>
     </cc:Agent>
    </dc:creator>
   </cc:Work>
  </rdf:RDF>
 </metadata>
 <defs>
  <style type="text/css">*{stroke-linejoin: round; stroke-linecap: butt}</style>
 </defs>
 <g id="figure_1">
  <g id="patch_1">
   <path d="M 0 345.6 
L 864 345.6 
L 864 0 
L 0 0 
z
" style="fill: #ffffff"/>
  </g>
  <g id="axes_1">
   <g id="patch_2">
    <path d="M 64.8 279.936 
L 399.972414 279.936 
L 399.972414 82.944 
L 64.8 82.944 
z
" style="fill: #ffffff"/>
   </g>
   <g id="matplotlib.axis_1">
    <g id="xtick_1">
     <g id="line2d_1">
      <path d="M 80.03511 279.936 
L 80.03511 82.944 
" clip-path="url(#p6642726c6c)" style="fill: none; stroke: #b0b0b0; stroke-opacity: 0.15; stroke-width: 0.8; stroke-linecap: square"/>
     </g>
     <g id="line2d_2">
      <defs>
       <path id="m84c618e39c" d="M 0 0 
L 0 3.5 
" style="stroke: #000000; stroke-width: 0.8"/>
      </defs>
      <g>
       <use xlink:href="#m84c618e39c" x="80.03511" y="279.936" style="stroke: #000000; stroke-width: 0.8"/>
      </g>
     </g>
     <g id="text_1">
      <text style="font-size: 12px; font-family: 'Microsoft YaHei'; text-anchor: middle" x="80.03511" y="296.680141" transform="rotate(-0 80.03511 296.680141)">0.5</text>
     </g>
    </g>
    <g id="xtick_2">
     <g id="line2d_3">
      <path d="M 123.563995 279.936 
L 123.563995 82.944 
" clip-path="url(#p6642726c6c)" style="fill: none; stroke: #b0b0b0; stroke-opacity: 0.15; stroke-width: 0.8; stroke-linecap: square"/>
     </g>
     <g id="line2d_4">
      <g>
       <use xlink:href="#m84c618e39c" x="123.563995" y="279.936" style="stroke: #000000; stroke-width: 0.8"/>
      </g>
     </g>
     <g id="text_2">
      <text style="font-size: 12px; font-family: 'Microsoft YaHei'; text-anchor: middle" x="123.563995" y="296.680141" transform="rotate(-0 123.563995 296.680141)">1.0</text>
     </g>
    </g>
    <g id="xtick_3">
     <g id="line2d_5">
      <path d="M 167.09288 279.936 
L 167.09288 82.944 
" clip-path="url(#p6642726c6c)" style="fill: none; stroke: #b0b0b0; stroke-opacity: 0.15; stroke-width: 0.8; stroke-linecap: square"/>
     </g>
     <g id="line2d_6">
      <g>
       <use xlink:href="#m84c618e39c" x="167.09288" y="279.936" style="stroke: #000000; stroke-width: 0.8"/>
      </g>
     </g>
     <g id="text_3">
      <text style="font-size: 12px; font-family: 'Microsoft YaHei'; text-anchor: middle" x="167.09288" y="296.680141" transform="rotate(-0 167.09288 296.680141)">1.5</text>
     </g>
    </g>
    <g id="xtick_4">
     <g id="line2d_7">
      <path d="M 210.621764 279.936 
L 210.621764 82.944 
" clip-path="url(#p6642726c6c)" style="fill: none; stroke: #b0b0b0; stroke-opacity: 0.15; stroke-width: 0.8; stroke-linecap: square"/>
     </g>
     <g id="line2d_8">
      <g>
       <use xlink:href="#m84c618e39c" x="210.621764" y="279.936" style="stroke: #000000; stroke-width: 0.8"/>
      </g>
     </g>
     <g id="text_4">
      <text style="font-size: 12px; font-family: 'Microsoft YaHei'; text-anchor: middle" x="210.621764" y="296.680141" transform="rotate(-0 210.621764 296.680141)">2.0</text>
     </g>
    </g>
    <g id="xtick_5">
     <g id="line2d_9">
      <path d="M 254.150649 279.936 
L 254.150649 82.944 
" clip-path="url(#p6642726c6c)" style="fill: none; stroke: #b0b0b0; stroke-opacity: 0.15; stroke-width: 0.8; stroke-linecap: square"/>
     </g>
     <g id="line2d_10">
      <g>
       <use xlink:href="#m84c618e39c" x="254.150649" y="279.936" style="stroke: #000000; stroke-width: 0.8"/>
      </g>
     </g>
     <g id="text_5">
      <text style="font-size: 12px; font-family: 'Microsoft YaHei'; text-anchor: middle" x="254.150649" y="296.680141" transform="rotate(-0 254.150649 296.680141)">2.5</text>
     </g>
    </g>
    <g id="xtick_6">
     <g id="line2d_11">
      <path d="M 297.679534 279.936 
L 297.679534 82.944 
" clip-path="url(#p6642726c6c)" style="fill: none; stroke: #b0b0b0; stroke-opacity: 0.15; stroke-width: 0.8; stroke-linecap: square"/>
     </g>
     <g id="line2d_12">
      <g>
       <use xlink:href="#m84c618e39c" x="297.679534" y="279.936" style="stroke: #000000; stroke-width: 0.8"/>
      </g>
     </g>
     <g id="text_6">
      <text style="font-size: 12px; font-family: 'Microsoft YaHei'; text-anchor: middle" x="297.679534" y="296.680141" transform="rotate(-0 297.679534 296.680141)">3.0</text>
     </g>
    </g>
    <g id="xtick_7">
     <g id="line2d_13">
      <path d="M 341.208419 279.936 
L 341.208419 82.944 
" clip-path="url(#p6642726c6c)" style="fill: none; stroke: #b0b0b0; stroke-opacity: 0.15; stroke-width: 0.8; stroke-linecap: square"/>
     </g>
     <g id="line2d_14">
      <g>
       <use xlink:href="#m84c618e39c" x="341.208419" y="279.936" style="stroke: #000000; stroke-width: 0.8"/>
      </g>
     </g>
     <g id="text_7">
      <text style="font-size: 12px; font-family: 'Microsoft YaHei'; text-anchor: middle" x="341.208419" y="296.680141" transform="rotate(-0 341.208419 296.680141)">3.5</text>
     </g>
    </g>
    <g id="xtick_8">
     <g id="line2d_15">
      <path d="M 384.737304 279.936 
L 384.737304 82.944 
" clip-path="url(#p6642726c6c)" style="fill: none; stroke: #b0b0b0; stroke-opacity: 0.15; stroke-width: 0.8; stroke-linecap: square"/>
     </g>
     <g id="line2d_16">
      <g>
       <use xlink:href="#m84c618e39c" x="384.737304" y="279.936" style="stroke: #000000; stroke-width: 0.8"/>
      </g>
     </g>
     <g id="text_8">
      <text style="font-size: 12px; font-family: 'Microsoft YaHei'; text-anchor: middle" x="384.737304" y="296.680141" transform="rotate(-0 384.737304 296.680141)">4.0</text>
     </g>
    </g>
    <g id="text_9">
     <text style="font-size: 12px; font-family: 'Microsoft YaHei'; text-anchor: middle" x="232.386207" y="313.688656" transform="rotate(-0 232.386207 313.688656)">形状 β</text>
    </g>
   </g>
   <g id="matplotlib.axis_2">
    <g id="ytick_1">
     <g id="line2d_17">
      <path d="M 64.8 276.695723 
L 399.972414 276.695723 
" clip-path="url(#p6642726c6c)" style="fill: none; stroke: #b0b0b0; stroke-opacity: 0.15; stroke-width: 0.8; stroke-linecap: square"/>
     </g>
     <g id="line2d_18">
      <defs>
       <path id="me161276b78" d="M 0 0 
L -3.5 0 
" style="stroke: #000000; stroke-width: 0.8"/>
      </defs>
      <g>
       <use xlink:href="#me161276b78" x="64.8" y="276.695723" style="stroke: #000000; stroke-width: 0.8"/>
      </g>
     </g>
     <g id="text_10">
      <text style="font-size: 12px; font-family: 'Microsoft YaHei'; text-anchor: end" x="57.8" y="281.567793" transform="rotate(-0 57.8 281.567793)">-26</text>
     </g>
    </g>
    <g id="ytick_2">
     <g id="line2d_19">
      <path d="M 64.8 237.044788 
L 399.972414 237.044788 
" clip-path="url(#p6642726c6c)" style="fill: none; stroke: #b0b0b0; stroke-opacity: 0.15; stroke-width: 0.8; stroke-linecap: square"/>
     </g>
     <g id="line2d_20">
      <g>
       <use xlink:href="#me161276b78" x="64.8" y="237.044788" style="stroke: #000000; stroke-width: 0.8"/>
      </g>
     </g>
     <g id="text_11">
      <text style="font-size: 12px; font-family: 'Microsoft YaHei'; text-anchor: end" x="57.8" y="241.916858" transform="rotate(-0 57.8 241.916858)">-24</text>
     </g>
    </g>
    <g id="ytick_3">
     <g id="line2d_21">
      <path d="M 64.8 197.393852 
L 399.972414 197.393852 
" clip-path="url(#p6642726c6c)" style="fill: none; stroke: #b0b0b0; stroke-opacity: 0.15; stroke-width: 0.8; stroke-linecap: square"/>
     </g>
     <g id="line2d_22">
      <g>
       <use xlink:href="#me161276b78" x="64.8" y="197.393852" style="stroke: #000000; stroke-width: 0.8"/>
      </g>
     </g>
     <g id="text_12">
      <text style="font-size: 12px; font-family: 'Microsoft YaHei'; text-anchor: end" x="57.8" y="202.265922" transform="rotate(-0 57.8 202.265922)">-22</text>
     </g>
    </g>
    <g id="ytick_4">
     <g id="line2d_23">
      <path d="M 64.8 157.742917 
L 399.972414 157.742917 
" clip-path="url(#p6642726c6c)" style="fill: none; stroke: #b0b0b0; stroke-opacity: 0.15; stroke-width: 0.8; stroke-linecap: square"/>
     </g>
     <g id="line2d_24">
      <g>
       <use xlink:href="#me161276b78" x="64.8" y="157.742917" style="stroke: #000000; stroke-width: 0.8"/>
      </g>
     </g>
     <g id="text_13">
      <text style="font-size: 12px; font-family: 'Microsoft YaHei'; text-anchor: end" x="57.8" y="162.614987" transform="rotate(-0 57.8 162.614987)">-20</text>
     </g>
    </g>
    <g id="ytick_5">
     <g id="line2d_25">
      <path d="M 64.8 118.091981 
L 399.972414 118.091981 
" clip-path="url(#p6642726c6c)" style="fill: none; stroke: #b0b0b0; stroke-opacity: 0.15; stroke-width: 0.8; stroke-linecap: square"/>
     </g>
     <g id="line2d_26">
      <g>
       <use xlink:href="#me161276b78" x="64.8" y="118.091981" style="stroke: #000000; stroke-width: 0.8"/>
      </g>
     </g>
     <g id="text_14">
      <text style="font-size: 12px; font-family: 'Microsoft YaHei'; text-anchor: end" x="57.8" y="122.964051" transform="rotate(-0 57.8 122.964051)">-18</text>
     </g>
    </g>
    <g id="text_15">
     <text style="font-size: 12px; font-family: 'Microsoft YaHei'; text-anchor: middle" x="31.493359" y="181.44" transform="rotate(-90 31.493359 181.44)">对数似然 ℓ</text>
    </g>
   </g>
   <g id="line2d_27">
    <path d="M 80.03511 270.981818 
L 83.867842 257.050526 
L 87.700574 244.367522 
L 91.533306 232.761099 
L 95.366038 222.093949 
L 99.19877 212.254493 
L 103.031502 203.150787 
L 106.864234 194.70614 
L 110.696966 186.855893 
L 114.529698 179.545005 
L 118.36243 172.726223 
L 122.195162 166.35867 
L 126.027894 160.406736 
L 129.860626 154.839208 
L 133.693358 149.628572 
L 137.52609 144.750446 
L 141.358822 140.183125 
L 145.191554 135.9072 
L 149.024286 131.905251 
L 152.857018 128.16158 
L 156.68975 124.662 
L 160.522482 121.393647 
L 164.355214 118.344824 
L 168.187946 115.504869 
L 172.020678 112.864037 
L 175.85341 110.413405 
L 179.686142 108.144787 
L 183.518874 106.050655 
L 189.267972 103.221608 
L 195.01707 100.748519 
L 200.766168 98.612589 
L 206.515266 96.797077 
L 212.264364 95.28705 
L 218.013462 94.069161 
L 223.76256 93.131471 
L 229.511658 92.463291 
L 235.260756 92.05505 
L 241.009854 91.898182 
L 246.758952 91.985024 
L 252.50805 92.308736 
L 258.257148 92.863222 
L 264.006246 93.643067 
L 269.755344 94.643481 
L 275.504442 95.86025 
L 281.25354 97.289691 
L 287.002638 98.928613 
L 292.751736 100.774286 
L 298.500834 102.824407 
L 304.249932 105.077079 
L 309.99903 107.530783 
L 315.748128 110.184356 
L 321.497226 113.036981 
L 327.246324 116.08816 
L 332.995422 119.337707 
L 338.74452 122.785734 
L 344.493618 126.432637 
L 350.242716 130.279091 
L 357.90818 135.719773 
L 365.573644 141.519863 
L 373.239108 147.683108 
L 380.904572 154.214031 
L 384.737304 157.618993 
L 384.737304 157.618993 
" clip-path="url(#p6642726c6c)" style="fill: none; stroke: #286d9b; stroke-width: 2.1; stroke-linecap: square"/>
   </g>
   <g id="line2d_28">
    <defs>
     <path id="mc28dddeec1" d="M 0 3 
C 0.795609 3 1.55874 2.683901 2.12132 2.12132 
C 2.683901 1.55874 3 0.795609 3 0 
C 3 -0.795609 2.683901 -1.55874 2.12132 -2.12132 
C 1.55874 -2.683901 0.795609 -3 0 -3 
C -0.795609 -3 -1.55874 -2.683901 -2.12132 -2.12132 
C -2.683901 -1.55874 -3 -0.795609 -3 0 
C -3 0.795609 -2.683901 1.55874 -2.12132 2.12132 
C -1.55874 2.683901 -0.795609 3 0 3 
z
" style="stroke: #c26340"/>
    </defs>
    <g clip-path="url(#p6642726c6c)">
     <use xlink:href="#mc28dddeec1" x="241.009854" y="91.898182" style="fill: #c26340; stroke: #c26340"/>
    </g>
   </g>
   <g id="line2d_29">
    <path d="M 241.009854 279.936 
L 241.009854 82.944 
" clip-path="url(#p6642726c6c)" style="fill: none; stroke-dasharray: 3.7,1.6; stroke-dashoffset: 0; stroke: #c26340"/>
   </g>
   <g id="patch_3">
    <path d="M 64.8 279.936 
L 64.8 82.944 
" style="fill: none; stroke: #000000; stroke-width: 0.8; stroke-linejoin: miter; stroke-linecap: square"/>
   </g>
   <g id="patch_4">
    <path d="M 64.8 279.936 
L 399.972414 279.936 
" style="fill: none; stroke: #000000; stroke-width: 0.8; stroke-linejoin: miter; stroke-linecap: square"/>
   </g>
   <g id="text_16">
    <text style="font-size: 14px; font-family: 'Microsoft YaHei'; text-anchor: middle" x="232.386207" y="76.944" transform="rotate(-0 232.386207 76.944)">MLE：寻找声明参数域内的最大值</text>
   </g>
   <g id="legend_1">
    <g id="patch_5">
     <path d="M 236.572414 274.936 
L 392.972414 274.936 
Q 394.972414 274.936 394.972414 272.936 
L 394.972414 258.037562 
Q 394.972414 256.037562 392.972414 256.037562 
L 236.572414 256.037562 
Q 234.572414 256.037562 234.572414 258.037562 
L 234.572414 272.936 
Q 234.572414 274.936 236.572414 274.936 
z
" style="fill: #ffffff; opacity: 0.8; stroke: #cccccc; stroke-linejoin: miter"/>
    </g>
    <g id="line2d_30">
     <path d="M 238.572414 264.901625 
L 248.572414 264.901625 
L 258.572414 264.901625 
" style="fill: none; stroke: #286d9b; stroke-width: 2.1; stroke-linecap: square"/>
    </g>
    <g id="text_17">
     <text style="font-size: 10px; font-family: 'Microsoft YaHei'; text-anchor: start" x="266.572414" y="268.401625" transform="rotate(-0 266.572414 268.401625)">固定 η=4、γ=2 的似然切片</text>
    </g>
   </g>
  </g>
  <g id="axes_2">
   <g id="patch_6">
    <path d="M 507.227586 279.936 
L 842.4 279.936 
L 842.4 82.944 
L 507.227586 82.944 
z
" style="fill: #ffffff"/>
   </g>
   <g id="matplotlib.axis_3">
    <g id="xtick_9">
     <g id="line2d_31">
      <path d="M 522.462696 279.936 
L 522.462696 82.944 
" clip-path="url(#paf858f322b)" style="fill: none; stroke: #b0b0b0; stroke-opacity: 0.15; stroke-width: 0.8; stroke-linecap: square"/>
     </g>
     <g id="line2d_32">
      <g>
       <use xlink:href="#m84c618e39c" x="522.462696" y="279.936" style="stroke: #000000; stroke-width: 0.8"/>
      </g>
     </g>
     <g id="text_18">
      <text style="font-size: 12px; font-family: 'Microsoft YaHei'; text-anchor: middle" x="522.462696" y="296.680141" transform="rotate(-0 522.462696 296.680141)">0.5</text>
     </g>
    </g>
    <g id="xtick_10">
     <g id="line2d_33">
      <path d="M 565.991581 279.936 
L 565.991581 82.944 
" clip-path="url(#paf858f322b)" style="fill: none; stroke: #b0b0b0; stroke-opacity: 0.15; stroke-width: 0.8; stroke-linecap: square"/>
     </g>
     <g id="line2d_34">
      <g>
       <use xlink:href="#m84c618e39c" x="565.991581" y="279.936" style="stroke: #000000; stroke-width: 0.8"/>
      </g>
     </g>
     <g id="text_19">
      <text style="font-size: 12px; font-family: 'Microsoft YaHei'; text-anchor: middle" x="565.991581" y="296.680141" transform="rotate(-0 565.991581 296.680141)">1.0</text>
     </g>
    </g>
    <g id="xtick_11">
     <g id="line2d_35">
      <path d="M 609.520466 279.936 
L 609.520466 82.944 
" clip-path="url(#paf858f322b)" style="fill: none; stroke: #b0b0b0; stroke-opacity: 0.15; stroke-width: 0.8; stroke-linecap: square"/>
     </g>
     <g id="line2d_36">
      <g>
       <use xlink:href="#m84c618e39c" x="609.520466" y="279.936" style="stroke: #000000; stroke-width: 0.8"/>
      </g>
     </g>
     <g id="text_20">
      <text style="font-size: 12px; font-family: 'Microsoft YaHei'; text-anchor: middle" x="609.520466" y="296.680141" transform="rotate(-0 609.520466 296.680141)">1.5</text>
     </g>
    </g>
    <g id="xtick_12">
     <g id="line2d_37">
      <path d="M 653.049351 279.936 
L 653.049351 82.944 
" clip-path="url(#paf858f322b)" style="fill: none; stroke: #b0b0b0; stroke-opacity: 0.15; stroke-width: 0.8; stroke-linecap: square"/>
     </g>
     <g id="line2d_38">
      <g>
       <use xlink:href="#m84c618e39c" x="653.049351" y="279.936" style="stroke: #000000; stroke-width: 0.8"/>
      </g>
     </g>
     <g id="text_21">
      <text style="font-size: 12px; font-family: 'Microsoft YaHei'; text-anchor: middle" x="653.049351" y="296.680141" transform="rotate(-0 653.049351 296.680141)">2.0</text>
     </g>
    </g>
    <g id="xtick_13">
     <g id="line2d_39">
      <path d="M 696.578236 279.936 
L 696.578236 82.944 
" clip-path="url(#paf858f322b)" style="fill: none; stroke: #b0b0b0; stroke-opacity: 0.15; stroke-width: 0.8; stroke-linecap: square"/>
     </g>
     <g id="line2d_40">
      <g>
       <use xlink:href="#m84c618e39c" x="696.578236" y="279.936" style="stroke: #000000; stroke-width: 0.8"/>
      </g>
     </g>
     <g id="text_22">
      <text style="font-size: 12px; font-family: 'Microsoft YaHei'; text-anchor: middle" x="696.578236" y="296.680141" transform="rotate(-0 696.578236 296.680141)">2.5</text>
     </g>
    </g>
    <g id="xtick_14">
     <g id="line2d_41">
      <path d="M 740.10712 279.936 
L 740.10712 82.944 
" clip-path="url(#paf858f322b)" style="fill: none; stroke: #b0b0b0; stroke-opacity: 0.15; stroke-width: 0.8; stroke-linecap: square"/>
     </g>
     <g id="line2d_42">
      <g>
       <use xlink:href="#m84c618e39c" x="740.10712" y="279.936" style="stroke: #000000; stroke-width: 0.8"/>
      </g>
     </g>
     <g id="text_23">
      <text style="font-size: 12px; font-family: 'Microsoft YaHei'; text-anchor: middle" x="740.10712" y="296.680141" transform="rotate(-0 740.10712 296.680141)">3.0</text>
     </g>
    </g>
    <g id="xtick_15">
     <g id="line2d_43">
      <path d="M 783.636005 279.936 
L 783.636005 82.944 
" clip-path="url(#paf858f322b)" style="fill: none; stroke: #b0b0b0; stroke-opacity: 0.15; stroke-width: 0.8; stroke-linecap: square"/>
     </g>
     <g id="line2d_44">
      <g>
       <use xlink:href="#m84c618e39c" x="783.636005" y="279.936" style="stroke: #000000; stroke-width: 0.8"/>
      </g>
     </g>
     <g id="text_24">
      <text style="font-size: 12px; font-family: 'Microsoft YaHei'; text-anchor: middle" x="783.636005" y="296.680141" transform="rotate(-0 783.636005 296.680141)">3.5</text>
     </g>
    </g>
    <g id="xtick_16">
     <g id="line2d_45">
      <path d="M 827.16489 279.936 
L 827.16489 82.944 
" clip-path="url(#paf858f322b)" style="fill: none; stroke: #b0b0b0; stroke-opacity: 0.15; stroke-width: 0.8; stroke-linecap: square"/>
     </g>
     <g id="line2d_46">
      <g>
       <use xlink:href="#m84c618e39c" x="827.16489" y="279.936" style="stroke: #000000; stroke-width: 0.8"/>
      </g>
     </g>
     <g id="text_25">
      <text style="font-size: 12px; font-family: 'Microsoft YaHei'; text-anchor: middle" x="827.16489" y="296.680141" transform="rotate(-0 827.16489 296.680141)">4.0</text>
     </g>
    </g>
    <g id="text_26">
     <text style="font-size: 12px; font-family: 'Microsoft YaHei'; text-anchor: middle" x="674.813793" y="313.688656" transform="rotate(-0 674.813793 313.688656)">形状 β</text>
    </g>
   </g>
   <g id="matplotlib.axis_4">
    <g id="ytick_6">
     <g id="line2d_47">
      <path d="M 507.227586 242.296582 
L 842.4 242.296582 
" clip-path="url(#paf858f322b)" style="fill: none; stroke: #b0b0b0; stroke-opacity: 0.15; stroke-width: 0.8; stroke-linecap: square"/>
     </g>
     <g id="line2d_48">
      <g>
       <use xlink:href="#me161276b78" x="507.227586" y="242.296582" style="stroke: #000000; stroke-width: 0.8"/>
      </g>
     </g>
     <g id="text_27">
      <text style="font-size: 12px; font-family: 'Microsoft YaHei'; text-anchor: end" x="500.227586" y="247.168653" transform="rotate(-0 500.227586 247.168653)">0.0</text>
     </g>
    </g>
    <g id="ytick_7">
     <g id="line2d_49">
      <path d="M 507.227586 202.16893 
L 842.4 202.16893 
" clip-path="url(#paf858f322b)" style="fill: none; stroke: #b0b0b0; stroke-opacity: 0.15; stroke-width: 0.8; stroke-linecap: square"/>
     </g>
     <g id="line2d_50">
      <g>
       <use xlink:href="#me161276b78" x="507.227586" y="202.16893" style="stroke: #000000; stroke-width: 0.8"/>
      </g>
     </g>
     <g id="text_28">
      <text style="font-size: 12px; font-family: 'Microsoft YaHei'; text-anchor: end" x="500.227586" y="207.041" transform="rotate(-0 500.227586 207.041)">0.5</text>
     </g>
    </g>
    <g id="ytick_8">
     <g id="line2d_51">
      <path d="M 507.227586 162.041277 
L 842.4 162.041277 
" clip-path="url(#paf858f322b)" style="fill: none; stroke: #b0b0b0; stroke-opacity: 0.15; stroke-width: 0.8; stroke-linecap: square"/>
     </g>
     <g id="line2d_52">
      <g>
       <use xlink:href="#me161276b78" x="507.227586" y="162.041277" style="stroke: #000000; stroke-width: 0.8"/>
      </g>
     </g>
     <g id="text_29">
      <text style="font-size: 12px; font-family: 'Microsoft YaHei'; text-anchor: end" x="500.227586" y="166.913348" transform="rotate(-0 500.227586 166.913348)">1.0</text>
     </g>
    </g>
    <g id="ytick_9">
     <g id="line2d_53">
      <path d="M 507.227586 121.913625 
L 842.4 121.913625 
" clip-path="url(#paf858f322b)" style="fill: none; stroke: #b0b0b0; stroke-opacity: 0.15; stroke-width: 0.8; stroke-linecap: square"/>
     </g>
     <g id="line2d_54">
      <g>
       <use xlink:href="#me161276b78" x="507.227586" y="121.913625" style="stroke: #000000; stroke-width: 0.8"/>
      </g>
     </g>
     <g id="text_30">
      <text style="font-size: 12px; font-family: 'Microsoft YaHei'; text-anchor: end" x="500.227586" y="126.785695" transform="rotate(-0 500.227586 126.785695)">1.5</text>
     </g>
    </g>
    <g id="text_31">
     <text style="font-size: 12px; font-family: 'Microsoft YaHei'; text-anchor: middle" x="476.223446" y="181.44" transform="rotate(-90 476.223446 181.44)">形状估计方程残差</text>
    </g>
   </g>
   <g id="line2d_55">
    <path d="M 522.462696 91.898182 
L 524.379062 99.074654 
L 526.295428 105.700155 
L 528.211794 111.838586 
L 530.12816 117.544281 
L 532.044526 122.863734 
L 533.960892 127.836961 
L 537.793624 136.878758 
L 541.626356 144.896756 
L 545.459088 152.065733 
L 549.29182 158.522407 
L 553.124552 164.375272 
L 556.957284 169.711532 
L 560.790016 174.602087 
L 564.622748 179.105182 
L 568.45548 183.269117 
L 572.288212 187.134289 
L 576.120944 190.734753 
L 579.953676 194.099422 
L 583.786408 197.253012 
L 589.535506 201.633323 
L 595.284604 205.645996 
L 601.033702 209.339964 
L 606.7828 212.755479 
L 612.531898 215.925979 
L 618.280996 218.87949 
L 625.94646 222.520385 
L 633.611924 225.863946 
L 641.277388 228.948333 
L 648.942852 231.805068 
L 656.608316 234.460453 
L 666.190146 237.529953 
L 675.771976 240.355309 
L 685.353806 242.966296 
L 696.852002 245.851176 
L 708.350198 248.498484 
L 719.848394 250.93751 
L 733.262956 253.552105 
L 746.677518 255.948399 
L 762.008446 258.453605 
L 777.339374 260.741051 
L 794.586668 263.087615 
L 813.750328 265.450103 
L 827.16489 266.969053 
L 827.16489 266.969053 
" clip-path="url(#paf858f322b)" style="fill: none; stroke: #286d9b; stroke-width: 2.1; stroke-linecap: square"/>
   </g>
   <g id="line2d_56">
    <defs>
     <path id="m555b5b0d3d" d="M 0 3 
C 0.795609 3 1.55874 2.683901 2.12132 2.12132 
C 2.683901 1.55874 3 0.795609 3 0 
C 3 -0.795609 2.683901 -1.55874 2.12132 -2.12132 
C 1.55874 -2.683901 0.795609 -3 0 -3 
C -0.795609 -3 -1.55874 -2.683901 -2.12132 -2.12132 
C -2.683901 -1.55874 -3 -0.795609 -3 0 
C -3 0.795609 -2.683901 1.55874 -2.12132 2.12132 
C -1.55874 2.683901 -0.795609 3 0 3 
z
" style="stroke: #286d9b"/>
    </defs>
    <g clip-path="url(#paf858f322b)">
     <use xlink:href="#m555b5b0d3d" x="682.825075" y="242.296582" style="fill: #286d9b; stroke: #286d9b"/>
    </g>
   </g>
   <g id="line2d_57">
    <path d="M 522.462696 124.000304 
L 524.379062 129.823072 
L 526.295428 135.204417 
L 528.211794 140.195461 
L 530.12816 144.839669 
L 532.044526 149.174236 
L 535.877258 157.038197 
L 539.70999 163.995836 
L 543.542722 170.206193 
L 547.375454 175.792708 
L 551.208186 180.852665 
L 555.040918 185.463778 
L 558.87365 189.688886 
L 562.706382 193.579356 
L 566.539114 197.177596 
L 570.371846 200.518935 
L 574.204578 203.633043 
L 578.03731 206.545031 
L 583.786408 210.580002 
L 589.535506 214.267574 
L 595.284604 217.655966 
L 601.033702 220.784442 
L 606.7828 223.685323 
L 612.531898 226.385482 
L 620.197362 229.711909 
L 627.862826 232.76532 
L 635.52829 235.581499 
L 643.193754 238.189814 
L 652.775584 241.194627 
L 662.357414 243.951578 
L 671.939244 246.492488 
L 683.43744 249.292976 
L 694.935636 251.856984 
L 708.350198 254.589459 
L 721.76476 257.080034 
L 735.179322 259.360369 
L 750.51025 261.742197 
L 767.757544 264.173493 
L 785.004838 266.377258 
L 804.168498 268.59534 
L 825.248524 270.793322 
L 827.16489 270.981818 
L 827.16489 270.981818 
" clip-path="url(#paf858f322b)" style="fill: none; stroke: #c26340; stroke-width: 2.1; stroke-linecap: square"/>
   </g>
   <g id="line2d_58">
    <g clip-path="url(#paf858f322b)">
     <use xlink:href="#mc28dddeec1" x="656.509592" y="242.296582" style="fill: #c26340; stroke: #c26340"/>
    </g>
   </g>
   <g id="line2d_59">
    <path d="M 507.227586 242.296582 
L 842.4 242.296582 
" clip-path="url(#paf858f322b)" style="fill: none; stroke: #75808c; stroke-linecap: square"/>
   </g>
   <g id="patch_7">
    <path d="M 507.227586 279.936 
L 507.227586 82.944 
" style="fill: none; stroke: #000000; stroke-width: 0.8; stroke-linejoin: miter; stroke-linecap: square"/>
   </g>
   <g id="patch_8">
    <path d="M 507.227586 279.936 
L 842.4 279.936 
" style="fill: none; stroke: #000000; stroke-width: 0.8; stroke-linejoin: miter; stroke-linecap: square"/>
   </g>
   <g id="text_32">
    <text style="font-size: 14px; font-family: 'Microsoft YaHei'; text-anchor: middle" x="674.813793" y="76.944" transform="rotate(-0 674.813793 76.944)">WMLE思想：改变方程，零点随之改变</text>
   </g>
   <g id="legend_2">
    <g id="patch_9">
     <path d="M 680.061094 118.84943 
L 836.1 118.84943 
Q 837.9 118.84943 837.9 117.04943 
L 837.9 89.244 
Q 837.9 87.444 836.1 87.444 
L 680.061094 87.444 
Q 678.261094 87.444 678.261094 89.244 
L 678.261094 117.04943 
Q 678.261094 118.84943 680.061094 118.84943 
z
" style="fill: #ffffff; opacity: 0.8; stroke: #cccccc; stroke-linejoin: miter"/>
    </g>
    <g id="line2d_60">
     <path d="M 681.861094 95.448375 
L 690.861094 95.448375 
L 699.861094 95.448375 
" style="fill: none; stroke: #286d9b; stroke-width: 2.1; stroke-linecap: square"/>
    </g>
    <g id="text_33">
     <text style="font-size: 9px; font-family: 'Microsoft YaHei'; text-anchor: start" x="707.061094" y="98.598375" transform="rotate(-0 707.061094 98.598375)">普通形状方程：J2=1</text>
    </g>
    <g id="line2d_61">
     <path d="M 681.861094 109.818668 
L 690.861094 109.818668 
L 699.861094 109.818668 
" style="fill: none; stroke: #c26340; stroke-width: 2.1; stroke-linecap: square"/>
    </g>
    <g id="text_34">
     <text style="font-size: 9px; font-family: 'Microsoft YaHei'; text-anchor: start" x="707.061094" y="112.968668" transform="rotate(-0 707.061094 112.968668)">修正示意：J2=0.8（人为设定）</text>
    </g>
   </g>
  </g>
  <g id="text_35">
   <text style="font-size: 19px; font-family: 'Microsoft YaHei'; text-anchor: middle" x="432" y="26.277531" transform="rotate(-0 432 26.277531)">似然路线：似然的峰值与估计方程的零点</text>
  </g>
  <g id="text_36">
   <text style="font-size: 10.5px; font-family: 'Microsoft YaHei'; text-anchor: middle; fill: #75808c" x="432" y="46.656" transform="rotate(-0 432 46.656)">数学原理示意 · 示例条件与适用边界见图下注释</text>
  </g>
 </g>
 <defs>
  <clipPath id="p6642726c6c">
   <rect x="64.8" y="82.944" width="335.172414" height="196.992"/>
  </clipPath>
  <clipPath id="paf858f322b">
   <rect x="507.227586" y="82.944" width="335.172414" height="196.992"/>
  </clipPath>
 </defs>
</svg>
