<?xml version="1.0" encoding="utf-8" standalone="no"?>
<!DOCTYPE svg PUBLIC "-//W3C//DTD SVG 1.1//EN"
  "http://www.w3.org/Graphics/SVG/1.1/DTD/svg11.dtd">
<svg xmlns:xlink="http://www.w3.org/1999/xlink" width="864pt" height="345.6pt" viewBox="0 0 864 345.6" xmlns="http://www.w3.org/2000/svg" version="1.1">
 <metadata>
  <rdf:RDF xmlns:dc="http://purl.org/dc/elements/1.1/" xmlns:cc="http://creativecommons.org/ns#" xmlns:rdf="http://www.w3.org/1999/02/22-rdf-syntax-ns#">
   <cc:Work>
    <dc:type rdf:resource="http://purl.org/dc/dcmitype/StillImage"/>
    <dc:date>2026-09-27T23:54:16.178915</dc:date>
    <dc:format>image/svg+xml</dc:format>
    <dc:creator>
     <cc:Agent>
      <dc:title>Matplotlib v3.11.2, https://matplotlib.org/</dc:title>
     </cc:Agent>
    </dc:creator>
   </cc:Work>
  </rdf:RDF>
 </metadata>
 <defs>
  <style type="text/css">*{stroke-linejoin: round; stroke-linecap: butt}</style>
 </defs>
 <g id="figure_1">
  <g id="patch_1">
   <path d="M 0 345.6 
L 864 345.6 
L 864 0 
L 0 0 
z
" style="fill: #ffffff"/>
  </g>
  <g id="axes_1">
   <g id="patch_2">
    <path d="M 64.8 279.936 
L 399.972414 279.936 
L 399.972414 82.944 
L 64.8 82.944 
z
" style="fill: #ffffff"/>
   </g>
   <g id="matplotlib.axis_1">
    <g id="xtick_1">
     <g id="line2d_1">
      <path d="M 80.03511 279.936 
L 80.03511 82.944 
" clip-path="url(#pc14325c6a5)" style="fill: none; stroke: #b0b0b0; stroke-opacity: 0.15; stroke-width: 0.8; stroke-linecap: square"/>
     </g>
     <g id="line2d_2">
      <defs>
       <path id="me40f0a1eb5" d="M 0 0 
L 0 3.5 
" style="stroke: #000000; stroke-width: 0.8"/>
      </defs>
      <g>
       <use xlink:href="#me40f0a1eb5" x="80.03511" y="279.936" style="stroke: #000000; stroke-width: 0.8"/>
      </g>
     </g>
     <g id="text_1">
      <text style="font-size: 12px; font-family: 'Microsoft YaHei'; text-anchor: middle" x="80.03511" y="296.680141" transform="rotate(-0 80.03511 296.680141)">2</text>
     </g>
    </g>
    <g id="xtick_2">
     <g id="line2d_3">
      <path d="M 118.122884 279.936 
L 118.122884 82.944 
" clip-path="url(#pc14325c6a5)" style="fill: none; stroke: #b0b0b0; stroke-opacity: 0.15; stroke-width: 0.8; stroke-linecap: square"/>
     </g>
     <g id="line2d_4">
      <g>
       <use xlink:href="#me40f0a1eb5" x="118.122884" y="279.936" style="stroke: #000000; stroke-width: 0.8"/>
      </g>
     </g>
     <g id="text_2">
      <text style="font-size: 12px; font-family: 'Microsoft YaHei'; text-anchor: middle" x="118.122884" y="296.680141" transform="rotate(-0 118.122884 296.680141)">3</text>
     </g>
    </g>
    <g id="xtick_3">
     <g id="line2d_5">
      <path d="M 156.210658 279.936 
L 156.210658 82.944 
" clip-path="url(#pc14325c6a5)" style="fill: none; stroke: #b0b0b0; stroke-opacity: 0.15; stroke-width: 0.8; stroke-linecap: square"/>
     </g>
     <g id="line2d_6">
      <g>
       <use xlink:href="#me40f0a1eb5" x="156.210658" y="279.936" style="stroke: #000000; stroke-width: 0.8"/>
      </g>
     </g>
     <g id="text_3">
      <text style="font-size: 12px; font-family: 'Microsoft YaHei'; text-anchor: middle" x="156.210658" y="296.680141" transform="rotate(-0 156.210658 296.680141)">4</text>
     </g>
    </g>
    <g id="xtick_4">
     <g id="line2d_7">
      <path d="M 194.298433 279.936 
L 194.298433 82.944 
" clip-path="url(#pc14325c6a5)" style="fill: none; stroke: #b0b0b0; stroke-opacity: 0.15; stroke-width: 0.8; stroke-linecap: square"/>
     </g>
     <g id="line2d_8">
      <g>
       <use xlink:href="#me40f0a1eb5" x="194.298433" y="279.936" style="stroke: #000000; stroke-width: 0.8"/>
      </g>
     </g>
     <g id="text_4">
      <text style="font-size: 12px; font-family: 'Microsoft YaHei'; text-anchor: middle" x="194.298433" y="296.680141" transform="rotate(-0 194.298433 296.680141)">5</text>
     </g>
    </g>
    <g id="xtick_5">
     <g id="line2d_9">
      <path d="M 232.386207 279.936 
L 232.386207 82.944 
" clip-path="url(#pc14325c6a5)" style="fill: none; stroke: #b0b0b0; stroke-opacity: 0.15; stroke-width: 0.8; stroke-linecap: square"/>
     </g>
     <g id="line2d_10">
      <g>
       <use xlink:href="#me40f0a1eb5" x="232.386207" y="279.936" style="stroke: #000000; stroke-width: 0.8"/>
      </g>
     </g>
     <g id="text_5">
      <text style="font-size: 12px; font-family: 'Microsoft YaHei'; text-anchor: middle" x="232.386207" y="296.680141" transform="rotate(-0 232.386207 296.680141)">6</text>
     </g>
    </g>
    <g id="xtick_6">
     <g id="line2d_11">
      <path d="M 270.473981 279.936 
L 270.473981 82.944 
" clip-path="url(#pc14325c6a5)" style="fill: none; stroke: #b0b0b0; stroke-opacity: 0.15; stroke-width: 0.8; stroke-linecap: square"/>
     </g>
     <g id="line2d_12">
      <g>
       <use xlink:href="#me40f0a1eb5" x="270.473981" y="279.936" style="stroke: #000000; stroke-width: 0.8"/>
      </g>
     </g>
     <g id="text_6">
      <text style="font-size: 12px; font-family: 'Microsoft YaHei'; text-anchor: middle" x="270.473981" y="296.680141" transform="rotate(-0 270.473981 296.680141)">7</text>
     </g>
    </g>
    <g id="xtick_7">
     <g id="line2d_13">
      <path d="M 308.561755 279.936 
L 308.561755 82.944 
" clip-path="url(#pc14325c6a5)" style="fill: none; stroke: #b0b0b0; stroke-opacity: 0.15; stroke-width: 0.8; stroke-linecap: square"/>
     </g>
     <g id="line2d_14">
      <g>
       <use xlink:href="#me40f0a1eb5" x="308.561755" y="279.936" style="stroke: #000000; stroke-width: 0.8"/>
      </g>
     </g>
     <g id="text_7">
      <text style="font-size: 12px; font-family: 'Microsoft YaHei'; text-anchor: middle" x="308.561755" y="296.680141" transform="rotate(-0 308.561755 296.680141)">8</text>
     </g>
    </g>
    <g id="xtick_8">
     <g id="line2d_15">
      <path d="M 346.64953 279.936 
L 346.64953 82.944 
" clip-path="url(#pc14325c6a5)" style="fill: none; stroke: #b0b0b0; stroke-opacity: 0.15; stroke-width: 0.8; stroke-linecap: square"/>
     </g>
     <g id="line2d_16">
      <g>
       <use xlink:href="#me40f0a1eb5" x="346.64953" y="279.936" style="stroke: #000000; stroke-width: 0.8"/>
      </g>
     </g>
     <g id="text_8">
      <text style="font-size: 12px; font-family: 'Microsoft YaHei'; text-anchor: middle" x="346.64953" y="296.680141" transform="rotate(-0 346.64953 296.680141)">9</text>
     </g>
    </g>
    <g id="xtick_9">
     <g id="line2d_17">
      <path d="M 384.737304 279.936 
L 384.737304 82.944 
" clip-path="url(#pc14325c6a5)" style="fill: none; stroke: #b0b0b0; stroke-opacity: 0.15; stroke-width: 0.8; stroke-linecap: square"/>
     </g>
     <g id="line2d_18">
      <g>
       <use xlink:href="#me40f0a1eb5" x="384.737304" y="279.936" style="stroke: #000000; stroke-width: 0.8"/>
      </g>
     </g>
     <g id="text_9">
      <text style="font-size: 12px; font-family: 'Microsoft YaHei'; text-anchor: middle" x="384.737304" y="296.680141" transform="rotate(-0 384.737304 296.680141)">10</text>
     </g>
    </g>
    <g id="text_10">
     <text style="font-size: 12px; font-family: 'Microsoft YaHei'; text-anchor: middle" x="232.386207" y="313.711156" transform="rotate(-0 232.386207 313.711156)">寿命 t</text>
    </g>
   </g>
   <g id="matplotlib.axis_2">
    <g id="ytick_1">
     <g id="line2d_19">
      <path d="M 64.8 270.981818 
L 399.972414 270.981818 
" clip-path="url(#pc14325c6a5)" style="fill: none; stroke: #b0b0b0; stroke-opacity: 0.15; stroke-width: 0.8; stroke-linecap: square"/>
     </g>
     <g id="line2d_20">
      <defs>
       <path id="m09a35b7ce7" d="M 0 0 
L -3.5 0 
" style="stroke: #000000; stroke-width: 0.8"/>
      </defs>
      <g>
       <use xlink:href="#m09a35b7ce7" x="64.8" y="270.981818" style="stroke: #000000; stroke-width: 0.8"/>
      </g>
     </g>
     <g id="text_11">
      <text style="font-size: 12px; font-family: 'Microsoft YaHei'; text-anchor: end" x="57.8" y="275.853888" transform="rotate(-0 57.8 275.853888)">0.0</text>
     </g>
    </g>
    <g id="ytick_2">
     <g id="line2d_21">
      <path d="M 64.8 234.496845 
L 399.972414 234.496845 
" clip-path="url(#pc14325c6a5)" style="fill: none; stroke: #b0b0b0; stroke-opacity: 0.15; stroke-width: 0.8; stroke-linecap: square"/>
     </g>
     <g id="line2d_22">
      <g>
       <use xlink:href="#m09a35b7ce7" x="64.8" y="234.496845" style="stroke: #000000; stroke-width: 0.8"/>
      </g>
     </g>
     <g id="text_12">
      <text style="font-size: 12px; font-family: 'Microsoft YaHei'; text-anchor: end" x="57.8" y="239.368916" transform="rotate(-0 57.8 239.368916)">0.2</text>
     </g>
    </g>
    <g id="ytick_3">
     <g id="line2d_23">
      <path d="M 64.8 198.011872 
L 399.972414 198.011872 
" clip-path="url(#pc14325c6a5)" style="fill: none; stroke: #b0b0b0; stroke-opacity: 0.15; stroke-width: 0.8; stroke-linecap: square"/>
     </g>
     <g id="line2d_24">
      <g>
       <use xlink:href="#m09a35b7ce7" x="64.8" y="198.011872" style="stroke: #000000; stroke-width: 0.8"/>
      </g>
     </g>
     <g id="text_13">
      <text style="font-size: 12px; font-family: 'Microsoft YaHei'; text-anchor: end" x="57.8" y="202.883943" transform="rotate(-0 57.8 202.883943)">0.4</text>
     </g>
    </g>
    <g id="ytick_4">
     <g id="line2d_25">
      <path d="M 64.8 161.5269 
L 399.972414 161.5269 
" clip-path="url(#pc14325c6a5)" style="fill: none; stroke: #b0b0b0; stroke-opacity: 0.15; stroke-width: 0.8; stroke-linecap: square"/>
     </g>
     <g id="line2d_26">
      <g>
       <use xlink:href="#m09a35b7ce7" x="64.8" y="161.5269" style="stroke: #000000; stroke-width: 0.8"/>
      </g>
     </g>
     <g id="text_14">
      <text style="font-size: 12px; font-family: 'Microsoft YaHei'; text-anchor: end" x="57.8" y="166.39897" transform="rotate(-0 57.8 166.39897)">0.6</text>
     </g>
    </g>
    <g id="ytick_5">
     <g id="line2d_27">
      <path d="M 64.8 125.041927 
L 399.972414 125.041927 
" clip-path="url(#pc14325c6a5)" style="fill: none; stroke: #b0b0b0; stroke-opacity: 0.15; stroke-width: 0.8; stroke-linecap: square"/>
     </g>
     <g id="line2d_28">
      <g>
       <use xlink:href="#m09a35b7ce7" x="64.8" y="125.041927" style="stroke: #000000; stroke-width: 0.8"/>
      </g>
     </g>
     <g id="text_15">
      <text style="font-size: 12px; font-family: 'Microsoft YaHei'; text-anchor: end" x="57.8" y="129.913997" transform="rotate(-0 57.8 129.913997)">0.8</text>
     </g>
    </g>
    <g id="ytick_6">
     <g id="line2d_29">
      <path d="M 64.8 88.556954 
L 399.972414 88.556954 
" clip-path="url(#pc14325c6a5)" style="fill: none; stroke: #b0b0b0; stroke-opacity: 0.15; stroke-width: 0.8; stroke-linecap: square"/>
     </g>
     <g id="line2d_30">
      <g>
       <use xlink:href="#m09a35b7ce7" x="64.8" y="88.556954" style="stroke: #000000; stroke-width: 0.8"/>
      </g>
     </g>
     <g id="text_16">
      <text style="font-size: 12px; font-family: 'Microsoft YaHei'; text-anchor: end" x="57.8" y="93.429024" transform="rotate(-0 57.8 93.429024)">1.0</text>
     </g>
    </g>
    <g id="text_17">
     <text style="font-size: 12px; font-family: 'Microsoft YaHei'; text-anchor: middle" x="33.795859" y="181.44" transform="rotate(-90 33.795859 181.44)">拟合分布 F(t)</text>
    </g>
   </g>
   <g id="line2d_31">
    <path d="M 80.03511 270.981818 
L 84.419314 270.830812 
L 88.803518 270.378543 
L 93.187722 269.627254 
L 97.571927 268.580662 
L 101.956131 267.243927 
L 106.340335 265.623613 
L 110.724539 263.727627 
L 115.108744 261.565165 
L 119.492948 259.146629 
L 123.877152 256.483547 
L 128.261356 253.588482 
L 132.645561 250.474932 
L 137.029765 247.157228 
L 143.606071 241.830976 
L 150.182377 236.132626 
L 156.758684 230.117615 
L 165.527092 221.703164 
L 174.295501 212.961965 
L 189.640216 197.275982 
L 204.98493 181.65958 
L 213.753339 172.992197 
L 222.521747 164.626078 
L 231.290156 156.636384 
L 237.866462 150.928053 
L 244.442769 145.485812 
L 251.019075 140.325164 
L 257.595381 135.457232 
L 264.171688 130.889002 
L 270.747994 126.623611 
L 277.3243 122.660677 
L 283.900607 118.996659 
L 290.476913 115.625235 
L 297.053219 112.53769 
L 303.629526 109.723303 
L 310.205832 107.169723 
L 316.782138 104.863336 
L 323.358445 102.789606 
L 329.934751 100.933391 
L 336.511057 99.279231 
L 343.087364 97.811605 
L 351.855772 96.118429 
L 360.624181 94.694233 
L 369.392589 93.50539 
L 378.160998 92.520492 
L 384.737304 91.898182 
L 384.737304 91.898182 
" clip-path="url(#pc14325c6a5)" style="fill: none; stroke: #286d9b; stroke-width: 2.1; stroke-linecap: square"/>
   </g>
   <g id="line2d_32">
    <defs>
     <path id="me834aea81c" d="M 0 3 
C 0.795609 3 1.55874 2.683901 2.12132 2.12132 
C 2.683901 1.55874 3 0.795609 3 0 
C 3 -0.795609 2.683901 -1.55874 2.12132 -2.12132 
C 1.55874 -2.683901 0.795609 -3 0 -3 
C -0.795609 -3 -1.55874 -2.683901 -2.12132 -2.12132 
C -2.683901 -1.55874 -3 -0.795609 -3 0 
C -3 0.795609 -2.683901 1.55874 -2.12132 2.12132 
C -1.55874 2.683901 -0.795609 3 0 3 
z
" style="stroke: #286d9b"/>
    </defs>
    <g clip-path="url(#pc14325c6a5)">
     <use xlink:href="#me834aea81c" x="122.416837" y="257.396988" style="fill: #286d9b; stroke: #286d9b"/>
     <use xlink:href="#me834aea81c" x="148.081557" y="237.990087" style="fill: #286d9b; stroke: #286d9b"/>
     <use xlink:href="#me834aea81c" x="168.6875" y="218.583187" style="fill: #286d9b; stroke: #286d9b"/>
     <use xlink:href="#me834aea81c" x="187.789834" y="199.176286" style="fill: #286d9b; stroke: #286d9b"/>
     <use xlink:href="#me834aea81c" x="206.875718" y="179.769386" style="fill: #286d9b; stroke: #286d9b"/>
     <use xlink:href="#me834aea81c" x="227.144817" y="160.362486" style="fill: #286d9b; stroke: #286d9b"/>
     <use xlink:href="#me834aea81c" x="250.195525" y="140.955585" style="fill: #286d9b; stroke: #286d9b"/>
     <use xlink:href="#me834aea81c" x="279.264765" y="121.548685" style="fill: #286d9b; stroke: #286d9b"/>
     <use xlink:href="#me834aea81c" x="325.570286" y="102.141784" style="fill: #286d9b; stroke: #286d9b"/>
    </g>
   </g>
   <g id="line2d_33">
    <path d="M 168.6875 270.981818 
L 168.6875 218.583187 
" clip-path="url(#pc14325c6a5)" style="fill: none; stroke-dasharray: 3.7,1.6; stroke-dashoffset: 0; stroke: #75808c"/>
   </g>
   <g id="line2d_34">
    <path d="M 80.03511 218.583187 
L 168.6875 218.583187 
" clip-path="url(#pc14325c6a5)" style="fill: none; stroke-dasharray: 3.7,1.6; stroke-dashoffset: 0; stroke: #75808c"/>
   </g>
   <g id="line2d_35">
    <path d="M 187.789834 270.981818 
L 187.789834 199.176286 
" clip-path="url(#pc14325c6a5)" style="fill: none; stroke-dasharray: 3.7,1.6; stroke-dashoffset: 0; stroke: #75808c"/>
   </g>
   <g id="line2d_36">
    <path d="M 80.03511 199.176286 
L 187.789834 199.176286 
" clip-path="url(#pc14325c6a5)" style="fill: none; stroke-dasharray: 3.7,1.6; stroke-dashoffset: 0; stroke: #75808c"/>
   </g>
   <g id="line2d_37">
    <path d="M 87.652665 218.583187 
L 87.652665 199.176286 
" clip-path="url(#pc14325c6a5)" style="fill: none; stroke: #c26340; stroke-width: 5; stroke-linecap: square"/>
   </g>
   <g id="patch_3">
    <path d="M 64.8 279.936 
L 64.8 82.944 
" style="fill: none; stroke: #000000; stroke-width: 0.8; stroke-linejoin: miter; stroke-linecap: square"/>
   </g>
   <g id="patch_4">
    <path d="M 64.8 279.936 
L 399.972414 279.936 
" style="fill: none; stroke: #000000; stroke-width: 0.8; stroke-linejoin: miter; stroke-linecap: square"/>
   </g>
   <g id="text_18">
    <text style="font-size: 11px; font-family: 'Microsoft YaHei'; text-anchor: start; fill: #c26340" x="93.365831" y="208.879737" transform="rotate(-0 93.365831 208.879737)">概率差 D</text>
   </g>
   <g id="text_19">
    <text style="font-size: 14px; font-family: 'Microsoft YaHei'; text-anchor: middle" x="232.386207" y="76.944" transform="rotate(-0 232.386207 76.944)">CDF上的纵向差，不是寿命横向差</text>
   </g>
  </g>
  <g id="axes_2">
   <g id="patch_5">
    <path d="M 507.227586 279.936 
L 842.4 279.936 
L 842.4 82.944 
L 507.227586 82.944 
z
" style="fill: #ffffff"/>
   </g>
   <g id="matplotlib.axis_3">
    <g id="xtick_10">
     <g id="line2d_38">
      <g>
       <use xlink:href="#me40f0a1eb5" x="513.67321" y="279.936" style="stroke: #000000; stroke-width: 0.8"/>
      </g>
     </g>
     <g id="text_20">
      <text style="font-size: 12px; font-family: 'Microsoft YaHei'; text-anchor: middle" x="513.67321" y="296.680141" transform="rotate(-0 513.67321 296.680141)">0.0</text>
     </g>
    </g>
    <g id="xtick_11">
     <g id="line2d_39">
      <g>
       <use xlink:href="#me40f0a1eb5" x="578.129443" y="279.936" style="stroke: #000000; stroke-width: 0.8"/>
      </g>
     </g>
     <g id="text_21">
      <text style="font-size: 12px; font-family: 'Microsoft YaHei'; text-anchor: middle" x="578.129443" y="296.680141" transform="rotate(-0 578.129443 296.680141)">0.2</text>
     </g>
    </g>
    <g id="xtick_12">
     <g id="line2d_40">
      <g>
       <use xlink:href="#me40f0a1eb5" x="642.585676" y="279.936" style="stroke: #000000; stroke-width: 0.8"/>
      </g>
     </g>
     <g id="text_22">
      <text style="font-size: 12px; font-family: 'Microsoft YaHei'; text-anchor: middle" x="642.585676" y="296.680141" transform="rotate(-0 642.585676 296.680141)">0.4</text>
     </g>
    </g>
    <g id="xtick_13">
     <g id="line2d_41">
      <g>
       <use xlink:href="#me40f0a1eb5" x="707.04191" y="279.936" style="stroke: #000000; stroke-width: 0.8"/>
      </g>
     </g>
     <g id="text_23">
      <text style="font-size: 12px; font-family: 'Microsoft YaHei'; text-anchor: middle" x="707.04191" y="296.680141" transform="rotate(-0 707.04191 296.680141)">0.6</text>
     </g>
    </g>
    <g id="xtick_14">
     <g id="line2d_42">
      <g>
       <use xlink:href="#me40f0a1eb5" x="771.498143" y="279.936" style="stroke: #000000; stroke-width: 0.8"/>
      </g>
     </g>
     <g id="text_24">
      <text style="font-size: 12px; font-family: 'Microsoft YaHei'; text-anchor: middle" x="771.498143" y="296.680141" transform="rotate(-0 771.498143 296.680141)">0.8</text>
     </g>
    </g>
    <g id="xtick_15">
     <g id="line2d_43">
      <g>
       <use xlink:href="#me40f0a1eb5" x="835.954377" y="279.936" style="stroke: #000000; stroke-width: 0.8"/>
      </g>
     </g>
     <g id="text_25">
      <text style="font-size: 12px; font-family: 'Microsoft YaHei'; text-anchor: middle" x="835.954377" y="296.680141" transform="rotate(-0 835.954377 296.680141)">1.0</text>
     </g>
    </g>
    <g id="text_26">
     <text style="font-size: 12px; font-family: 'Microsoft YaHei'; text-anchor: middle" x="674.813793" y="313.793656" transform="rotate(-0 674.813793 313.793656)">概率轴：0 ≤ F(t) ≤ 1</text>
    </g>
   </g>
   <g id="matplotlib.axis_4"/>
   <g id="line2d_44">
    <path d="M 513.67321 199.348364 
L 537.672871 199.348364 
" clip-path="url(#p126977cb20)" style="fill: none; stroke: #c26340; stroke-width: 5; stroke-linecap: square"/>
   </g>
   <g id="line2d_45">
    <path d="M 537.672871 199.348364 
L 571.958101 199.348364 
" clip-path="url(#p126977cb20)" style="fill: none; stroke: #286d9b; stroke-width: 5; stroke-linecap: square"/>
   </g>
   <g id="line2d_46">
    <path d="M 571.958101 199.348364 
L 606.243332 199.348364 
" clip-path="url(#p126977cb20)" style="fill: none; stroke: #c26340; stroke-width: 5; stroke-linecap: square"/>
   </g>
   <g id="line2d_47">
    <path d="M 606.243332 199.348364 
L 640.528563 199.348364 
" clip-path="url(#p126977cb20)" style="fill: none; stroke: #286d9b; stroke-width: 5; stroke-linecap: square"/>
   </g>
   <g id="line2d_48">
    <path d="M 640.528563 199.348364 
L 674.813793 199.348364 
" clip-path="url(#p126977cb20)" style="fill: none; stroke: #c26340; stroke-width: 5; stroke-linecap: square"/>
   </g>
   <g id="line2d_49">
    <path d="M 674.813793 199.348364 
L 709.099024 199.348364 
" clip-path="url(#p126977cb20)" style="fill: none; stroke: #286d9b; stroke-width: 5; stroke-linecap: square"/>
   </g>
   <g id="line2d_50">
    <path d="M 709.099024 199.348364 
L 743.384254 199.348364 
" clip-path="url(#p126977cb20)" style="fill: none; stroke: #c26340; stroke-width: 5; stroke-linecap: square"/>
   </g>
   <g id="line2d_51">
    <path d="M 743.384254 199.348364 
L 777.669485 199.348364 
" clip-path="url(#p126977cb20)" style="fill: none; stroke: #286d9b; stroke-width: 5; stroke-linecap: square"/>
   </g>
   <g id="line2d_52">
    <path d="M 777.669485 199.348364 
L 811.954715 199.348364 
" clip-path="url(#p126977cb20)" style="fill: none; stroke: #c26340; stroke-width: 5; stroke-linecap: square"/>
   </g>
   <g id="line2d_53">
    <path d="M 811.954715 199.348364 
L 835.954377 199.348364 
" clip-path="url(#p126977cb20)" style="fill: none; stroke: #286d9b; stroke-width: 5; stroke-linecap: square"/>
   </g>
   <g id="line2d_54">
    <defs>
     <path id="m3d92ffef56" d="M 0 2 
C 0.530406 2 1.03916 1.789267 1.414214 1.414214 
C 1.789267 1.03916 2 0.530406 2 0 
C 2 -0.530406 1.789267 -1.03916 1.414214 -1.414214 
C 1.03916 -1.789267 0.530406 -2 0 -2 
C -0.530406 -2 -1.03916 -1.789267 -1.414214 -1.414214 
C -1.789267 -1.03916 -2 -0.530406 -2 0 
C -2 0.530406 -1.789267 1.03916 -1.414214 1.414214 
C -1.03916 1.789267 -0.530406 2 0 2 
z
" style="stroke: #75808c"/>
    </defs>
    <g clip-path="url(#p126977cb20)">
     <use xlink:href="#m3d92ffef56" x="513.67321" y="199.348364" style="fill: #75808c; stroke: #75808c"/>
     <use xlink:href="#m3d92ffef56" x="537.672871" y="199.348364" style="fill: #75808c; stroke: #75808c"/>
     <use xlink:href="#m3d92ffef56" x="571.958101" y="199.348364" style="fill: #75808c; stroke: #75808c"/>
     <use xlink:href="#m3d92ffef56" x="606.243332" y="199.348364" style="fill: #75808c; stroke: #75808c"/>
     <use xlink:href="#m3d92ffef56" x="640.528563" y="199.348364" style="fill: #75808c; stroke: #75808c"/>
     <use xlink:href="#m3d92ffef56" x="674.813793" y="199.348364" style="fill: #75808c; stroke: #75808c"/>
     <use xlink:href="#m3d92ffef56" x="709.099024" y="199.348364" style="fill: #75808c; stroke: #75808c"/>
     <use xlink:href="#m3d92ffef56" x="743.384254" y="199.348364" style="fill: #75808c; stroke: #75808c"/>
     <use xlink:href="#m3d92ffef56" x="777.669485" y="199.348364" style="fill: #75808c; stroke: #75808c"/>
     <use xlink:href="#m3d92ffef56" x="811.954715" y="199.348364" style="fill: #75808c; stroke: #75808c"/>
     <use xlink:href="#m3d92ffef56" x="835.954377" y="199.348364" style="fill: #75808c; stroke: #75808c"/>
    </g>
   </g>
   <g id="patch_6">
    <path d="M 507.227586 279.936 
L 842.4 279.936 
" style="fill: none; stroke: #000000; stroke-width: 0.8; stroke-linejoin: miter; stroke-linecap: square"/>
   </g>
   <g id="text_27">
    <text style="font-size: 10px; font-family: 'Microsoft YaHei'; text-anchor: middle" x="525.67304" y="172.485818" transform="rotate(-0 525.67304 172.485818)">首间距</text>
   </g>
   <g id="text_28">
    <text style="font-size: 10px; font-family: 'Microsoft YaHei'; text-anchor: middle" x="623.385947" y="172.485818" transform="rotate(-0 623.385947 172.485818)">内部间距</text>
   </g>
   <g id="text_29">
    <text style="font-size: 10px; font-family: 'Microsoft YaHei'; text-anchor: middle" x="823.954546" y="172.485818" transform="rotate(-0 823.954546 172.485818)">尾间距</text>
   </g>
   <g id="text_30">
    <text style="font-size: 13px; font-family: 'Microsoft YaHei'; text-anchor: middle" x="674.813793" y="247.700945" transform="rotate(-0 674.813793 247.700945)">最大化 D1 × D2 × … × D(n+1)</text>
   </g>
   <g id="text_31">
    <text style="font-size: 14px; font-family: 'Microsoft YaHei'; text-anchor: middle" x="674.813793" y="76.944" transform="rotate(-0 674.813793 76.944)">加入0与1，形成 n+1 个间距</text>
   </g>
  </g>
  <g id="text_32">
   <text style="font-size: 19px; font-family: 'Microsoft YaHei'; text-anchor: middle" x="432" y="26.316125" transform="rotate(-0 432 26.316125)">MPS：观测之间的概率质量，就是要比较的间距</text>
  </g>
  <g id="text_33">
   <text style="font-size: 10.5px; font-family: 'Microsoft YaHei'; text-anchor: middle; fill: #75808c" x="432" y="46.656" transform="rotate(-0 432 46.656)">数学原理示意 · 示例条件与适用边界见图下注释</text>
  </g>
 </g>
 <defs>
  <clipPath id="pc14325c6a5">
   <rect x="64.8" y="82.944" width="335.172414" height="196.992"/>
  </clipPath>
  <clipPath id="p126977cb20">
   <rect x="507.227586" y="82.944" width="335.172414" height="196.992"/>
  </clipPath>
 </defs>
</svg>
